<svg xmlns="http://www.w3.org/2000/svg" viewBox="0 0 623 400">
  <ellipse transform="matrix(.961 -.2767 .2767 .961 -43.5484 89.4821)" cx="295.3" cy="199.1" rx="267" ry="182.6" fill="#63a69f"/>
  <ellipse transform="matrix(.961 -.2767 .2767 .961 -54.2945 71.0444)" cx="224.6" cy="227.9" rx="190.1" ry="168.7" fill="#598e87"/>
  <path d="M235.9 39.7c29.3-1.1 58.6-2.3 88-3.4 46.5-1.8 93.1-3.6 139.6-5.5 10.7-.4 21.4-.8 32.1-1.3-.9 24.1-1.9 48.2-2.8 72.3-.7 17.2-1.4 34.5-2 51.7-.2 6.2-.5 12.4-.7 18.6-.1 1.9.7 7.4-.4 9.1-.6.9-2 .6-3.4.7-4.6.3-9.2.6-13.8 1l-47.4 3.3c-29 2-58.1 4-87.1 6-9.6.7-19.3.6-29 .8-3.8.1-7.7.2-11.5.3-1.4 0-3.4-.3-4.6.2-2.6 1-3.4 3.4-6.3 3.9-3.9.8-7.9 1.5-11.9 2.2-2.6.5-5.2.9-7.8 1.4-.8-4.7-1.6-9.3-2.5-14 7.1-.5 14.2-.9 21.3-1.4 4.7-.3 9.3-.6 14-.9 1.4-.1 3.5.2 4.7-.5 2.1-1.1 4.3-4.3 5.9-6 3.4-3.5 6.9-6.9 10.3-10.4l9.9-9.9c1.4-1.4 2.9-3.5 4.6-4.6 3.3-2.1 8.5-3 12.2-4.3 3.8-1.3 4.9-3.1 7.5-6.3l-8.4-2.4c3-2.3 6.5-4.5 9.2-7.1 2.2-2.2 1.4-4.9 1.4-8.1-7.2 7-14 14.3-22.4 19.9-8.6 5.7-16.5 12.4-24.6 18.8-3.1 2.4-3.9 3.6-7.6 3.5-6.1-.2-12.2-.3-18.4-.5-6.2-.2-12.4-.3-18.6-.5-.7 0-2.3.2-2.8-.2-.6-.5-2.4-7.2-2.1-7.7.4-.8 5.2-1.6 6-1.8 2.4-.7 6.2-1.1 8.3-2.5 1.2-.8 2.1-2.9 2.9-4.2l5.7-9c2.5-3.9 2.4-7.9 3-12.6.3-2.2 1.1-4.8.9-7-.2-2.4-1.5-5.1-2.1-7.4-.4-1.5-.7-4.4-1.7-5.6-1.3-1.6-5.5-2.9-7.3-3.9-5.2-2.7-8.4-3.4-14.3-4.2-1.5-.2-4.5-1.2-5.8-.7-1.9.7-4.6 5.2-5.9 6.7-2.7 3.1-5.2 6.4-8.1 9.3-1.5 1.6-5.9 4.3-6.5 6.4-.5 1.5.9 5 1.2 6.5.9 5 1 11.4 3.2 15.9 1.5 3 4.2 5.9 6.1 8.6 2.1 3 2.5 2.7.9 5.9-2.5 4.8-8.5 6.6-13.2 9.2-.5-15.3-2.1-31-.4-46.3 1.2-11 2.5-22.1 3.7-33.1.7-6.1.1-12.3-.1-18.4-.4-10.1-.7-20.3-1.1-30.5z" fill="#fff"/>
  <path d="M338.5 96.6L294.1 72l-31.8-17.7c-5.7-3.1-11.3-6.8-17.2-9.5-7.6-3.5-9.3 3.5-9.4 9.1-.1 7.5-.2 15-.3 22.6-.3 24.4-.6 48.8-1 73.2l-.6 49.8c26.8-1.2 53.4-2.3 80-5 24.3-2.4 48.7-4 73.1-5.7 19.3-1.3 38.7-2.7 58-4 7-.5 14-1 21.1-1.4 3.1-.2 6.7 0 9.8-.7 5.8-1.2 4.1-6.3.3-8.5s-7.6-4.3-11.4-6.5c-14.5-8.2-29-16.3-43.5-24.5-27-15.2-54.1-30.5-81.1-45.7-.5-.3-1.1-.6-1.6-.9z" fill="#ebeded"/>
  <path d="M265 158.4c-5.7 0-11-.3-15.9-3.6-5.5-3.9-8.5-10-8.7-16.7-.2-7.8-1.5-18.2 1.8-25.5 5.3-11.5 21.4-15.3 32.2-9.5 11 5.9 10.8 17 10.8 27.8 0 5.1.4 10.3-1.6 15.1-3.1 7.4-10.6 12.4-18.6 12.4zm152.9 133.8c-10.6 0-20.6-5.2-22.7-16.5-1.4-7.5-1.1-18.2 3.3-24.5 6-8.5 18.5-11.2 27.8-6.9 10.2 4.7 11.9 14.4 11.9 24.4 0 12.1-6.9 23.5-20.3 23.5z" fill="#f2e1ac"/>
  <path d="M152.8 93c2.7 1.1 6.2-5.5 8.4-6.6 4.6-2.3 7.9 3.6 8.7 7.3 1.2 5.4-.9 8-4.9 10.9-5.2 3.7-8.2 8.6-11.2 14.1-2.6 4.8-3 1.1-3.8-2.4-.8-3.2-2.3-6.1-5-8.1-1.8-1.4-4-2.2-5.4-4.1-2.8-3.8-2.8-11 1-14.2 1.8-1.6 4.5-2.2 6.8-1.7 1.1.2 2.3.7 3.1 1.4.8.9 1.1 3 2.3 3.4z" fill="#cd2c24"/>
  <path d="M198.2 185.1c2.1-2.9 7.4-4.9 9.1-.8 2.1 4.8 1.4 11.9 2 17 .3 2.1.6 11.8 4.1 9.6 1.2-.8 1.8-3.5 2.4-4.8 1-2.2 2-4.3 3.1-6.4 4.7-9.1 10.1-18 15.7-26.6.7-1.1 8.5-14.1 10-13.4 0 0-.5 4-.5 4.2.5 1.7 1.9 2.6 3.6 3.1 5.1 1.6 7.7-1.3 10.5-4.8 2.1-2.5 1.6-1.5 1.7 1.1.1 3.2 1.4 3.5 4.4 3.7 6.9.3 13.9-.8 20.8-.8 3.7 0 7.6 0 11.3.8 3.1.7 5.2 2.4 8.4.9 2.3-1.1 4.1-3.5 6-5.3 2.7-2.6 5.6-5.1 8.4-7.6 2.7-2.4 5.5-4.8 8.3-7.2 2.6-2.2 4.6-5.1 7.1-1.4 2.1 3.1 1.7 5.4-1.2 7.5-3 2.1-5.5 4-8.1 6.6-5.8 5.7-9.9 12.8-15.6 18.5-6.6 6.5-18.1 5.4-26.6 5.6-1.1 0-19.5-.4-19.5-.8 0 1 .7 2.1.8 3.2.2 2.4-.4 5-.3 7.4.1 3.6.7 7.1 1 10.6.6 6-.9 7.4-6.6 7.6-6.8.3-14 2.6-20.8 2.4-5.3-.1-3.1-5-2.7-8.7.3-2.7 2.2-12-2.4-7.3-3.6 3.8-6.5 8.6-9.3 13-2.9 4.5-5.5 9.1-8.1 13.8-3.4 6.2-9.4 4.6-10.1-2.4-.4-4.4.3-8.8-.4-13.2-.6-3.6-1.8-7-3.2-10.4-1.7-4.1-6.4-10.4-3.3-14.7zm194.9 122.3c-.5-6.3 10.9-11.3 15.4-13.4 2.2-1.1 5.4-2.3 7.9-1.6 3.7 1 2.8 4.1 7 3.1 6.3-1.5 10.3 4 13.4 8.8.7 1.1 1.3 2.1 2.2 3.1.5.6 3.1 2.2 3.2 3 .2 1.4-.7.7-1.7 1-2.5.6-3.3.5-5.3 2.3-2 1.7-2.1 1.8-3.6-.7-1.3-2.1-2.3-4.3-3.8-6.3-.9-1.1-2.9-4-4.7-3.5-3 .8-1.8 5.8-1.3 7.8 1.9 7-3.5 4.7-8.3 6.6-2.1.9-7.9 10.7-9.4 5.3-.8-2.8 4.1-17.5.1-16.6-3.1.7-2.4 6.4-5 7.7-3 1.5-5.9-4.1-6.1-6.6z" fill="#f2594b"/>
  <path d="M264.5 253.3c12.4-2.2 24.9-4.5 37.3-6.7-.2 3.3-.3 6.6-.7 9.9-.5 3.6-1.1 1.3-3.7 3-1.1.8-2.2 3.2-3 4.3-2 2.8-4 5.7-6 8.5-7.6 10.8-15.2 21.7-22.9 32.5v-13.6c0-4 0-5.2 2-8.6 4.2-7.4 8.3-15.2 11.3-23.2-3.7-1.2-10 3.4-13.3 4.8-.4-3.7-.7-7.3-1-10.9zm-33.9 68.4l11.4 20.7c2.3-2.6 4.4-5.3 6.6-8.1.6-.7 1.8-1.8 1.7-2.6-.1-1.2-2.7-3.6-3.4-4.4-1.3-1.7-4.4-7.7-6.4-8.4-2.2-.6-7.7 2.2-9.9 2.8zm12.8-2.3l7.2.9c-1.6 1.5-3.2 3-4.8 4.6-.8-1.9-1.6-3.7-2.4-5.5zm-10.8 9.9c.6 1 2.2 2.6 2.4 3.8.2 1.1-.1.8-1 2.1-1.8 2.6-4.2 5-6.3 7.4-1.6-1.5-3.3-3-4.9-4.4 3.3-3 6.6-6 9.8-8.9z" fill="#f2836b"/>
  <path d="M212.6 213.3c9.7-17.2 19.5-34.4 29.2-51.6 2.3 2.2 4.4 3.2 4.3 6.2-.1 4.6-1.5 9.4-2 13.9-.6 6.1-1.1 12.3-.7 18.5.3 4.1.7 10.1 4.3 12.8-4.4.2-8.8.5-13.3.7-.3-4.8-.5-9.6-.8-14.4-3.7 4.5-6.9 9.4-10.2 14.2-3.1 4.5-6.1 10.4-10.1 14.2-3.9 3.7-5.2-.4-6.2-4-1.1-3.8-1.7-7.7-2.5-11.5-1.1-5.6-2.6-11.1-4-16.7-.5-2-3.2-8.3-2.5-10.3.6-1.5 5.7-2.5 7.5-3.2 1.5 5 2.6 9.5 3.3 14.7 1 5.9 1.4 11.1 3.7 16.5zm198.7 78.9c-2.9 1.3-7.2 2.4-9.7 4.4-2.5 2.1-5.3 6.6-6.9 9.4-.6 1.2-1.8 3.7-1.4 4.7.2.5 4.5 3.6 5.1 3.5 2.8-.4 3.3-8.3 6.8-8.3-.2 2.3-.3 4.6-.5 6.9-.2 2.7-1.4 7.1-.7 9.7.5 2 1.2 1.7 2.8.7 2.2-1.4 4.3-3.9 6.2-5.7-8.5-2.2-3.1-20.3-1.7-25.3z" fill="#d8463f"/>
  <path d="M110.6 63.5c-2.7 3.1-5.5 6.2-8.2 9.3-.4.5-2.2 3.2-2.8 3.2-.9.1-3.5-3-4.2-3.6 2.7-3.1 5.5-6.2 8.2-9.3.4-.5 2.2-3.2 2.8-3.2.9-.1 3.5 2.9 4.2 3.6zm78.6 5.4c-4.2-3.7-8.4-7.4-12.6-11 .6-.7 2.8-4.1 3.6-4.2.6-.1 2.8 2.5 3.3 2.9 3.1 2.7 6.2 5.5 9.3 8.2-1.2 1.3-2.4 2.7-3.6 4.1zm-81.7 121.4c-3.1-2.7-6.2-5.5-9.3-8.2-.5-.4-3.2-2.2-3.2-2.8-.1-.9 3-3.5 3.6-4.2 4.2 3.7 8.4 7.4 12.6 11-1.3 1.5-2.5 2.9-3.7 4.2z" fill="#3b7a72"/>
  <path d="M498.5 338.9c-5.4-.7-11.1 0-16.5 0-5.5 0-11-.1-16.5.1-11 .3-22.1.6-33.1.6 1.1-3 3.7-8.2 1-11-2.8-2.9-8 .3-5.1-4.8 1-1.7 1.7-3.5 1.9-5.5.1-.9.1-2.9-.6-3.7-.8-1.1-1-.7-2.5-.7-3.1 0-3.8 1.9-4.3-1.9-.3-1.9-.8-5.3 0-7 2.8 3.2 5.9 6.1 8.7 9.4.9 1.1 2.1 1.8 3 2.9 1 1.2 1.2 2.9 2.3 4.1 2 2.3 5 3.1 7.4.9 1.6-1.6 4.1-6.9 3.3-9.2-.6-1.6-2.4-1.7-3.6-2.4-.8 0-1.5-.3-2-.7.2-.6.3-1.3.5-1.9-.3-.7-2.6-2.1-3.1-2.6-1.3-1.2-2.4-2.6-3.7-3.9-1.2.1-1.7-.5-1.6-1.7-.3-.9-.7-1.6-1.4-2.3-1-1.3-2.4-2.9-3.9-3.6-1.6-.7-3-.4-4.7-.1-3.4.6-3.4.7-5.4-2.2 4.9-3.2 9.8-5.2 14.3-9 .5 1.3 1.8 4.6 3.6 4.7 1.2.1 1.3-1 2.2-1.4 1-.4 1.2-.1 2.5-.4 1.1-.2 5-1.6 2.8-2.9-.6-.4-3.8 1.5-3.7-.1 0-.8 2.7-1.8 3.4-2.5 1.5-1.5 2.3-3.6 2.8-5.6 1.2-4.8-.6-7.6-4.8-9.5 3.5-3.2 5.4-6.5 3.3-11.2-.9-2.1-1-1.4-1.1-3.5 0-1 .3-1.9.1-3-.4-2.1-1.5-3.8-3.2-5.1-1.8-1.4-3-1.4-4.2-3.3-1.3-2.1-1.7-3.4-4.2-4.3-.9-.3-3.6 0-4.2-.5-.7-.6-.5-2.6-.9-3.4-.9-2.1-2.3-2.8-4.5-3.3-2.9-.7-4.7-.5-7.2 1-1 .6-1.9 1.6-3.1 1.7-.9.1-1.8-.6-2.8-.4-4.7.7-2.3 5.5-5 8.1-1.2 1.2-2.8 1.3-3.9 2.8-.6.8-1 2.9-1.7 3.5-.7.5-2.5.3-3.3.7-6 2.5-2.2 8.9.8 12.1-3.6 1.1-8-2.1-9.6 3.6-.6 2.2 0 5 1.1 6.9.5.8 1 1.7 1.8 2.3 1.1.7 3.3.1 4.1.8 1.4 1.1.9 5.9 1.2 7.5.4 2.8 1.3 5.4 2.8 7.8 1.2 1.9 2.6 3.6 4.6 4.6 1.3.7 4.4 1.2 4.6 3-6 2.1-9.9 5-13.1 10.6-.6 1.1-1.4 2.3-2 3.4-1 .2-1.3.7-1 1.5.1.6.1 1.2 0 1.8-1 2.8-3.5 4-3.4 7.5.1 2.8 2.1 3.8 4.2 5.3 1.8 1.3 4.6.2 6-1.5 3-3.7 1.6-11.2 6.5-13.7-.6 4.8-.7 9.7-1.4 14.5-.4 2.9 1.2.8-1 2.7-.6.5-2.3.8-2.9 1-3.3.9-6.6 1.2-10 .9-2-.2-4.8-.1-6.6-.8-2.1-.9-3.6-2.9-5.5-4.1-3-2.1-10.6-5.1-11.7-8.2-1.4-4.1-.4-11.3-.2-15.7.2-6.1.8-12.2.8-18.3.1-11.6.9-23.1 1-34.6 0-2.4.1-4.6.4-6.9.1-.9.2-1.8.2-2.7.1-2.7-.7-2.1 1.8-2.9 2.3-.8 5.4.7 7.6-.5 2.2-1.2 2.3-4.7 2.1-6.9-.1-1.4-.1-4.9-.8-6-1.7-2.4-2.3.6-2.1 1.9.2 2.1.9 4 .5 6.2-.7 3.4-3.3 2.9-6.3 3-11.8.5-23.4 2.1-35.1 2.8-.8 0-3 .5-3.5.4-2.3-.5-1.5-1-1.4-3.3.1-1.9-.4-4.5 1-5.9 1.2-1.2 5.6-1.2 7.3-1.4 2.6-.2 5.1-.7 7.6-1.1 6.2-.8 12.7-1.1 18.9-1.3 2.3-.1 7.3 1 9.2-.2.5-.3.7-.1.9-.7.7-1.8-.4-1.5-1.3-1.7-2.6-.8-7.1.3-9.9.5-3.6.3-7.1.6-10.7.7-5.9.2-13.2 3-18.9 1.8 1.7-2 .6-2.7.8-5.2.2-2.7 1.3-5.1 1.2-7.9-.1-6.4-5.6-.1-6.8-4.3-.5-1.7 1.3-4.9 1.2-7-.1-1.6 0-3.1-1.3-4.3-2.7-2.5-9.5-1.2-12.8-1.1-5.2.2-10.5.7-15.7.6-4.4-.1-6.2 1.4-7.6 5.8-.7 2.4-.1 6.1-1.1 8.1-.9 2.1-4.3-.2-5.6 2.3-.7 1.5-.2 5.5-.3 7.2-.1 2.3-.9 5.6.3 7.6 2-1.2 1.7-1.2 1.6-3.1-.1-2.3 0-4.4.2-6.7.1-.9-.1-2.7.4-3.4.7-1 .8-.5 2.2-.7 2.1-.3 4.5.1 6.6.1 2.1 0 3.6-.3 4.6 1.4.9 1.7.7 5.4.6 7.3 0 1.1.1 4.6-.9 5.5-1 .9-4.9.4-6 .4-8.7-.1-17.1.3-25.7.7-10.1.5-20.2.9-30.3.9 2-1.6 3.5-3.4 1.8-6.1-1.8-2.9-6-2.3-8.1-.3.8-3.8 1.6-3.3 5.2-3.7 2.4-.3 4.8-.3 7.2-.6 5.3-.7 11.1-1.4 16.5-1.4 1.5 0 3.1 0 4.6.2 2.9.3 2.5-.4 2.7 2 .1 1.5-2.3 6.8-1.3 7.8 3.1 2.9 4.6-9.8 4.1-10.8-.8-1.7-1.4-1.2-3.2-1.4-3.2-.5-3-1.2-3.3-4.6-.1-1.3-.9-6.2.2-7.3 1.1-1.2 8.6-.1 10.2-.1 2.7-.1 5.3-.1 8.1-.1 1.4 0 4.7 1.1 5.9.1 2.2-1.8-.4-2.2-1.6-2.4-2.8-.5-6.7-.3-9.6 0-3 .2-11.2 1.8-13.1-.6-.7-.9-.6-8.1.1-9 1.2-1.5 3.3-.9 5.2-.9 5.7 0 11.4-.2 17.1-.5 3.1-.2 6.3.1 9.4.1 2.6-.1 5.9.7 8.1-1 1.7-1.3 2.1-3.3 3.6-5 1.2-1.4 2.5-2.7 3.7-4.1 1.4-1.6 3-3.6 4.5-5 2.5-2.3 3.2-1.7 5.1 1.2 1.9 3.1 2.9 10.4 6.9 10.3 2.3 0 5.4-2.5 7.3-3.6 2.9-1.6 5.8-3.4 8.8-5 5.1-2.7 10.5-4.7 15.5-7.4 2.5-1.3 4.6-3.3 7.2-4.4.1 0 2.7-.5 2.8-.7 1-1.2 0-3.4-.7-4.4-.3-.5-.6-1.3-1.2-1.6-2.6-1.2-1.7.3-2 1.7-.1.6.9 1.1.8 1.9-.3 1.5-3.7 2.5-4.8 3.1-5.2 3.1-10.4 5.8-15.8 8.6-.4-2-2.2-1.9-3.8-2.2.2 1.7.8 2 2.2 3.1-3.4 2-7 4-10.5 6.1-1.2.7-4.1 2.8-5.6 2.4-1.6-.4-2.6-3.5-3.1-4.8-1.2-2.6-3.5-4.7.4-5.8.7-.2 2-.4 2.8-.2.2 0 2.8 1.4 2.5 1.4 1.8 0 2.5-1.6.8-3-1.4-1.2-5.1-.7-6.8-.4-1.2.2-4.3 2-4.6-.4-.2-1.5 3.4-4.1 4.6-5.1 3.3-2.8 5.5-5.4 9.5-7.1 2-.9 2.7-2.3 4.3-3.6 1.9-1.5 4.3-1.8 6.5-2.3 5.3-1.1 10.1-5.8 2.9-8.3 2.5-2.7 5.6-4.7 7.6-7.8 1.5-2.4 4-8.2-1-7.5-2.9.4-5.7 3.4-8 5.1-2.8 2.1-5 4.4-7.5 7-2.6 2.7-4.9 6.2-8.8 6.3-3 .1-2.2.5-4 2.6-2.4 2.7-5.8 4.5-8.6 6.8-2.1 1.7-4.4 4.3-6.3 5.6-1.8 1.7-3.7 4.8-5.9 6-1.5.9-1.7.4-3.1.4-2.1 0-4.2.3-6.3.5-7.2.7-14.6.7-21.9.5-3.4-.1-7.3.5-10.6-.4-1.2-.3-3.2-1-4-2-.9-1.3.9-1.6-.6-3-2.7-2.5-2.3.5-2.9 1.7-.9 1.9-4.2 3.3-6.3 3.5-3.3.3-5.3-1-6-3.9-.8-3.2-1-3.8-3.6-1.1-4.5 4.6-7.2 10.6-10.9 15.7-1.7 2.4-2.6 5.3-4 7.9-1.6 3-3.5 5.8-5.1 8.8-2.7 5.2-5.2 12.6-9.9 16.4-.9-3-.7-5.9-.9-8.8-.2-2.7-.9-5.5-1.5-8.2-.6-2.9-.8-7.2-2.2-9.8-.8-1.5-1.3-1.4-1.4-3.3-.1-1.3.6-3.1.7-4.4.3-4-1.3-6.2-2.3-9.9-.4-1.4-.3-2.8-.7-4.4l-1.2-4.2c-.7-2.4-1.1-5.5-3.2-7.2-.2-.5-.6-.8-1.2-.9-1-.4-1.6-.1-1.9 1-.3.4-.5.7-.8 1.1-.6-.4-1.2-.7-1.8-.9-2.9.6-1.8 3.2-3.6 4.8-1 .9-2.8.5-4.1-.3-2.1-1.2-2.1-1.1-2.2-3.7 0-2.8.3-5.7.5-8.6 0-.6.8-8.3-1.8-5.6-1.1 1.1-.4 6.8-.5 8.5-.2 2.8.7 9.8-3.7 8.3-1.8-.7-.8-.4-1.9-1.9-.2-.3-1.4-1.9-1.5-2-3.1-3-2.1 1-1.3 3.3-1.5.4-2.8.7-4.2-.1 1.9-2.6 3.1-5.6 4.6-8.4 1.3-2.4 5-6.8 4.7-9.6-.2-1.5-.8-2.2-2.4-1-.8.6-1.1 3.4-1.5 4.5-1.5 3.3-3.4 6.6-5.1 9.8-1 1.8-2.1 4.7-4.1 5.8-1.3.7-7.1 1.4-8.4.9-1.7-.7-3.6-4.7-3.5-6.7.2-3.1 3.4-5.1 5.3-7.1-1.3-1.3-2.8-2.2-4.3-3.3-1-.8-2-2-3.1-2.6-2.3-1.1-2 .3-3.5-2-1-1.5-1-4.2-1.5-5.9-.5-1.9-.6-3.8-1-5.7-.2-1-1.3-2.2-1.4-3.1-.2-1.3 1.3-1.6.1-2.8-.8-.9-3-.2-3.8.3-2.4 1.7-2.1 6.6.6 7.8 2.3 1 1.6-1 2.8 1.8.8 1.8 1 4.3 1.4 6.2 1.7 7.9 4.1 16.3 7.9 23.4-.4.3-4.8 1.5-5.5 1.2-2.9-1.5.9-2.4.9-4.3 0-3.4-3.7 1.3-4.4 2.3-1.6 2.5-3 4-5.3 6-9.4 8.3-12.6 18.1-14.4 30-.9 6-1.3 10.3.1 16.3.6 2.7 1.5 5.1 2.5 7.6.4 1 .8 2 1.2 3.1.8 2.1 1.3 2.6 2.5 4.1 6 7.4 15.6 9.5 24.9 8.5 1.9-.2 3.9-.4 5.8-.7.7-.1 5.4-1.7 3.9 1.2-.4.9-6 .5-7 .6-3.6.1-6.8-.1-10.3.4-11.1 1.4-22.8 1-34 .6-5.1-.2-10.1.2-15.2.5-2.9.2-5.7.5-8.6.4-.8 0-5.8-1-4.8 1 1.2 2.4 13.4.3 15.5.3l16.2-.6c6.1-.3 12.5.4 18.6.3 6.2-.1 12.4-.9 18.7-.9 2.6 0 5.2.3 7.8 0 3.4-.3 3.7-.6 4.6 3.1.2.7.9 2.3.8 3.2-.2 2.7.3 1.3-1.9 2-2.5.8-6.5.5-9.1.7-10.2.8-20.5 2.2-30.7 2-10.3-.2-21 .2-31.2 1.6-2.2.3-5.3 1.5-7.5.8s-1.6-2.1-1.8-4.3c-.1-1.6.3-5.7-.7-6.9-2.7-3.2-2.2 2.2-2 3.6.2 2.2-.6 7.2.3 9.1 1.1 2.1 3 1.1 5.3.8 2.6-.4 5.2-.7 7.8-.9 3.1-.3 4.8-1.8 5.3 1.5.2 1.1.5 3.3.2 4.3-.2.7-1.1 1-1.2 1.9-.2 2.6.5 5.4.7 8 .4 5.8-.1 11.5.3 17.3.9 11.7.3 23.4.7 35.2.2 6.3-.7 12.5-.7 18.7 0 5.2-.5 12.4.9 17.5.6 2.3 1.8 3.4 4.3 3.1.5-.1.9-.2 1.4-.2.8-.8 1.7-.8 2.5 0 1.3 0 2.5-.2 3.8-.4 5.9-1 11.6-.8 17.5-1.1 6.4-.3 12.8-1.7 19.3-1.9 6.3-.2 12.7-.4 19-.2 6.6.2 13.3.2 19.9.6 1.7.1 14.9 1.9 13.8-1.9 2.8 1 5.7 2.5 8.7 2.6 3.3.2 6.3-.6 9.4-1.2 1.9-.4 3.6.1 5.5-.4 2.3-.6 4.1-.7 6.6-.8 2.1-.1 5.4.4 7.4-.4 2.8-1.1 1.5-2.3-1-2.2-1.8 0-14.2 2.8-14.9 1.6 3.6-4.3 1.9-7.2-2.1-10.3 2.7-3.3 6.3-7 10.1-8.9.9 2.3 1.2 2.2.4 4.2-.4 1-1.4 2.1-2 2.9-1.2 1.5-3.1 2.6-3.1 4.5 3.6-1.2 4-5 7.2-6.3.6 1.2 3 6.6 4.5 6.5 3.6-.3-1.3-5.2-1.9-6.4-.7-1.3-.6-2.9-1.2-3.8-.6-1.1-1.2-1.3-1.6-2.8-.1-.4.3-1.1.1-1.5-.4-.9-.7-.3-1.4-1.1-.5-.6-3.5-3.4-3.1-4.5.6-1.6 7.7-1 8.8-.2 2.7 2.1 4.9 7.4 6.6 10.4 1.3 2.3 1.1 2.4-.6 4.2-1.2 1.3-2.3 2.7-3 4.4-1 2.3-.9 5.1 1.1 6.9 2.5 2.4 6.2 1.2 9.2 1 3.4-.3 6.8-.9 10.2-1.1 3.8-.3 7.7-.6 11.5-.6 3.5 0 5.7 1.9 8.8 3.1 7.4 2.9 15.6 2.2 23.1-.1 6.9-2.2 12.7-6.6 19-9.9 6.2-3.2 14.5-5.2 21.5-5.2 1.9 0 2.6-.3 3.2 1.6.4 1.2-.2 2.9-.3 4.1-.1 1.4.4 3.9-.6 5-1.1 1.3-3.5.8-5.3 1.1-7.5.9-15.1 1.4-22.6 2-1.6.1-5.3.6-2 1.7 3 1 9-.5 12.2-.5 3.7-.1 7.3-.7 11-1 4.1-.4 7.9.9 12-.3 2.3-.7 6.9.5 7.2-2.8.2-1.9-2.4-4.5-.7-6.7 1-1.2 6.1 1.5 7.9 2.2 3.2 1.2 6.5 2.2 9.7 3.1 3.4 1 15 3.8 16.5-.5.9-2.6-1.6-8.1 3-8.8 2.4-.4 1.3.6 2.2 2 .8 1.3 1.5 1.6 2.2-.4.4-1.1-.5-3.6.9-4.3 2-1 1.9 1.3 2 2.7.1 1.7.1 3.6-1.1 4.8-.9.8-2.4.4-2.9 1.8-2.3 6.4 15 4.8 18 4.3.9-.1 3.5-.3 2.8-2-.6-1.3-3.6-.5-4.8-.3-3.8.4-7.9.9-11.6-.3 1.8-1.2 7.8-4.2 8.4-6.5 1.1-4.8-3.9 1.2-4.6 1.7-3.4 2.3-1.3-4.7-2.2-7.1-.6-1.4-1.7-2.6-3.4-2.4-1.9.2-2.3 2.2-3.6 3-2.4 1.4-4.7.7-6.7 3.1-1.3 1.6-1.3 2-1.3 4.2 0 2.8.2 3.5-2.9 4.2-3.6.8-7.7-.8-11.2-1.7-7.1-1.8-13.3-6-20.3-7.9-8.3-2.2-16-1.7-24.2.6-14.5 4-26.9 17.5-43 14.8-3.5-.6-8-1.2-10.4-3.9-1.2-1.3-1.2-2.8-2-4.2-.9-1.5-1.9-1.9-2.3-3.8-1.4-6.8 1.4-17.1 5.2-22.8.3-4.4 4.1-10.2 5.8-14.6 2-4.9 4.5-9.4 6.7-14.2 4.5-9.6 6.2-20.3 7.2-30.7 1-9.8 1.7-19.4 2.4-29.2.4-5.7.5-11.2-.1-17-.5-4.7-2.1-9.1-2.8-13.7 7.7.7 15.7-1.5 23.3-.3 1.9.3 2.2.3 2.8 2.2 1.2 3.6-.8 1.6-1.8 3.2-1.4 2.4.1 5.8.4 8.3 2.2 14.5 1.6 29-1.5 43.4-1.7 7.6-4.3 15.5-7.8 22.5-3.4 6.9-7.7 13-11.5 19.8-3.9 6.9-7.1 14.2-9.6 21.7-1 3-1.7 6.2-2.6 9.1-.5 1.5-1.2 2.7-1.3 4.6-.1 2.1 1 4 1 5.9.1.2.2.4.2.7.5.7.3 1-.6 1.1-.2.6-1.7.4-1.3 1.6.6 2 1.9-.2 2.9-.4.7-.1 1.5-.1 2.2.7.7.9-.2 1.7.2 2.3 1.1 1.8.8.5 2.1-.2.8-.4.6-.5 1.8-.8 1.1-.3 2.5-.2 3.6-.4 2.2-.5 4.8-1.3 6.8-2.2 3.4-1.5 7.9-5.6 10.4-8.4.6.6 1.3 2.7 2.4 2 1.1-.7.1-2.4.6-3.4.9-1.9 5.1-3.9 6.7-5.1 4.7-3.5 10-6.4 16-7.4 4.6-.7 12.3.4 16.6 2.4 2.3 1.1 4.7 2.9 6.9 4.3 2 1.3 6.4 3.3 7.2 5-2.9-.6-4.9 7.3-1.5 5 1.7-1.1.5-3.8 2.8-3.9.8 0 2 1 2.9 1.2 1.4.3 2.5 0 3.9.2 6.7.9-.9 6.5.9 10.3 1 2.2 1.8.5 2.3-1.1.6-2.2 2.6-6.7 1.2-8.2 8.7-1.6 14.8-3.1 21.2-9.6 3.1-3.2 6.9-1.6 10.8-2.8.6-.2.7-1.4 1-1.4.5-.1 2.2.6 2.7.8 1.8 1.1 1.8 1.8 1.1 3.9-1.4 4.2-4.5 5.1-7.7 7.4-2.9 2.1-2.5 6.4-1.1 9.4.4.9 1.9 3.9 2.9 1.8.6-1.1-.8-2.2-1.2-3.2-1.5-3.6.7-7.3 4.8-6.7-1.2 6.9 2.4-.1 4.9.1 3.9.3 2.2 6.2.6 7.8-.9.9-4.1 1.9-3.9 3.4.3 1.8 4.2.9 5.4.8 4.7-.3 9.2-.2 13.8-.3 9.2-.2 18.1-1.3 27.4-.7 5 .4 10.2 0 15.2-.2 2.3-.1 4.6-.3 6.8-.1 2.4.3 2.4.7 4.3-1.3.2-.3-.2-.5-.6-.7zM301 205.4v1.7h-6.8c.2-3-.2-9.7 2.9-11.5 4-2.5 4 7.5 3.9 9.8zm36.9-61.1c3.3-1.8 5.4-6.5 8.1-9.1 2.1-2 8.4-7.8 11.1-7.2-.2 4.7-4.8 7.5-8.1 10-1 .7-4.1 3.1-2.8 4.7.7.9 4.8-.7 5.3 1.2.4 1.4-10.5 4.3-12 5.2-2 1.2-2.8 2.1-4.3-.2-1.7-2.6.1-3.2 2.7-4.6zm-196.3-24.9c1 .1 1.6.5 1.9 1.4-1.6.7-2 .4-1.9-1.4zm-30.3 187.5c.7 3.9-.2 7.9-.1 11.8.1 4.2.4 8.3.2 12.5-.1 3.6-.1 7.2-.2 10.7 0 2 .1 4.1 0 6.1 0 .8 0 1.7-.2 2.4-.6 1.9-.2 1.1-1.8 1.6-1.3.4-3.4 0-3.9-.8-.3-.5 0-2.9 0-3.6-.2-3.5-.7-6.8-.9-10.2-.3-8.2.5-16.4.4-24.6-.1-15.2 1.7-30.6.3-45.8-.3-3.6-.6-7-.6-10.6 0-1.9-1.1-8.3.1-9.9.5-.7 6.2-1.4 6.7-.6.7.9-1.2 3-1.3 3.9-.3 1.7.1 4 .1 5.7.3 8.8-.1 17.6.7 26.3.4 4.3.7 8.7.7 13.1.1 4-.9 8.4-.2 12zM353.9 335c1.3.1 3.2 0 4.4.7 1.9 1.1 1.5 1.7 1.6 3.9.1 1.9.6 3.7-1 5-.7.6-2.1.6-2.9.8-2 .4-1.8.6-2.7-1.3-1.2-2.5-.2-6.8.6-9.1zM234.7 230c.3-.3.6-.6.8-.9-1 5.3-4.8 11.5-10 13.3.6-2.2 3.7-4.1 5.1-5.8 1.6-1.8 3.5-4.3 4.1-6.6zm-14 7.7c-5.8-.3-11.9 1-17.8 1.1-6.1.1-12.2.1-18.3.4-2.2.1-6.5 1.1-8.5.3-1.6-.7-3.5-4.9-3.3-6.6.5-4 8.8-1.8 11.8-1.8 5.2 0 10.5-.5 15.6-.3 5.8.2 11.9.3 17.7-.1 2.9-.2 5.7-.4 8.7-.5 2.1-.1 4.6-.5 4.4 1.9-.1 1.1-2.7 4.7-3.7 5.3-1.5.7-4.8.4-6.6.3zm3.4 2.5c-.6.6-1.2 1.5-1.9 1.9-1.7.8-.7.2-2.3 0-1.6-.1-2.9 0-4.5.2-4.9.5-10.1.1-15.1.2-4.2.1-8.4.3-12.7.5-3.1.1-9 1.7-10.3-1.6 7.1-.7 14.6-.9 21.8-.6 8 .3 17.1-2.4 25-.6zm-18.5-54.1c1.7 5.3 3.3 10.5 3.8 16 .4 4.4-.2 10.2 1.7 14.2.7 1.5 2.1 3.5 3.8 1.8.3-.3 1-1.6.7-2.2-.4-.7-1.4-.1-1.6-.4-3.4-4.2 5.7-.2 3.9-4.2-.3-.6-1.6-.3-1.8-.6-1-1.6-.8-.3-.1-2.3.8-2.5 2.9-5.3 4.2-7.6 2.1-3.9 4.5-7.7 6.6-11.6 5.1-9 10.3-17.4 16.3-25.7 2 3.3 2.4 4.3 6.6 4.6 2.2.1 3.2 0 5.2-.7.9-.3 2.3-1.3 3.3-.9.4.9.9 1.6 1.7 2.2.8.3 1.6.4 2.4.3 1.8.1 3-.4 4.7-.7 3.3-.7 6.4-.2 9.6 0 3.6.3 7.5-.1 11.1-.2 3.1-.1 8-1.6 11-.3 1 .4 2.1 1.3 2.6 2.3.7 1.3-.2 4 .8 4.9 2.6 2.2 2.5-3.9 2.5-4.9 1.1 1.2.2 3.4 2.4 2.6 2.6-1 .1-2.5.3-3.6.5-2.6 3.9-5.6 6-7.6 2.7-2.6 5.9-5.1 8.9-7.4 3-2.4 6.4-3.9 8.6-7.2.9 1.4 3 3.8 2.5 5.6-.3 1.1-3 2.6-3.8 3.5-1 1-1.9 2.2-2.9 3.2-2.4 2.2-4.2 3.9-6.1 6.6-1.6 2.2-3.6 3.9-5.4 6-3.3 3.7-7.1 10.2-12.1 11.6-3.4.9-6.8.6-10.2.6-4 0-8 .4-12 .6-3.5.2-7-.2-10.5-.2-.6 0-3.3.3-3.9-.1-1.1-.8.2-2.8-2-2.2-2.6.7-.4 13.7-.6 16-.2 3.7.3 7.5-.1 11.1-.4 3.9-4.5 2.7-7.8 3.1-6.9.7-13.5 1.5-20.6 1.5 1.9-2.5.6-8.9.5-11.8-.1-3.2-.5-5.8-3.1-2.6-4.5 5.3-8.6 11.6-12.2 17.7-1.6 2.7-4.4 4.8-5.8 7.4-1.2 2.3 0 2.7 2 1.7 1.5-.7 2.9-3.3 3.8-4.7 1.9-2.9 3.4-6.1 5.5-9 1.2-1.7 5.8-9.7 7.9-9.6-.4 3.3-.1 6.6-1.1 9.8-.2.5-.8.8-1 1.4-.2.8 0 1.9-.1 2.7-.2 2.1-.7 4.2-1 6.3-.1 1 0 2.2-.4 3.1-.7 1.9 0 1.2-1.9 1.8-2 .6-4.7.4-6.9.6-2.3.2-4.5.4-6.8.3-1.1 0-2.5.1-3.5-.2-2.2-.6-1.1.1-1.9-2.1-2.6-7-3.5-15.2-5.4-22.5-1.1-4.1-1.6-8.3-2.9-12.4-.9-2.6-2.3-3.7.2-5.3.9-.9 3.9-2 4.4-.3zm-5.6-3l2.1-.3c-.6.5-1.2 1-2.1.3zm-6.6-30.3c.9 1 2 5 3.4 4.8 2.3-.4 1.3-3.9 1.1-5.3 1.6-.3 4.4 11.4 4.8 13.2.8 3.5 4.5 14.1-1.1 14.6-1.8.2-1.5.7-2.3-1.1-.4-.9-.1-2.5-.2-3.5-.1-1.1-.3-2.2-.4-3.3 0-.7.1-1.4.1-2.1-.2-.8.2-1 1.1-.7 1.9-1.5 1.7-.5 1.2-3.1-.4-2.2-.2-4.7-3.2-4.4.2.8.4 1.5.7 2.3-.4.2-3.5-4.4-4-5.2-1.3-2-1.7-3.9-1.2-6.2zm-41.1-8.3c-1.5-1.8-2.6-5.7-2.7-8.1 1.6.7 4.3 1.9 5.3 3.3 1.5 2.3-.8 3.3-2.6 4.8zm.4 14.2c2.1-3.6 3.5 2.7 5.1 2.8 3 .2 1.1-3.5 2.1-4.2 1.3-.9 2.4.6 3.4.8 1.3.3.7 1 2.5.1 2.5-1.3 3.7-4.3 7.2-2.8 1.9.8 1.4.8.9 2.9-.4 1.6-.9 3.2-1.5 4.7-1.3 3.6-3.4 3.5-7.1 3.8-3.1.3-6.2.1-9.3.4-2.9.3-5.6 1-8.5.5 1.5-2.9 3.4-5.9 5.2-9zm17.3 11.7c-.6 1.3-1.2 2.6-1.7 3.9-.9 2.1-.9 1.9-2.7 2.5-3.3 1.1-3.9-.2-2.9-2.9.6-1.7 1.3-4.3 2.9-5.2 1.4-.9 5.6-1.1 4.4 1.7zm-18.1 3.3c.9-1.4 2.2-5.5 4.6-4-.7 1.4-2.3 7.5-3.1 8-3 2.1-2.3-2.7-1.5-4zm-1.3-2.1c-.8 1.5-1.6 3.2-2.5 4.7-1.2 1.9-2.4 2.4-5 1.7 0-1.7 1.5-6.9 3.2-7.7 1-.5 3.5 0 4.6 0 0 .5-.2.9-.3 1.3zm6.3 3.8c.1-1.3 1.2-4.9 2.4-5.6 1.9-1.2 2.3-.1 1.8 1.7-.3 1.1-1.6 4.6-2.4 5.3-.9.9-2.1.8-3.4.9 1-.8 1.5-1.1 1.6-2.3zm-23.7 42c-.9 1.3-3.4-4.5-3.8-5.3-1.2-2.7-1.8-5.6-2.3-8.6-1.3-6.8-.1-13.7 1.1-20.4 1.1-6.2 4.2-12.1 8.2-16.9 4.1-5 7.7-7.2 14.1-7.6 0 2.6-1.3 1.7-2.5 3.1-.9 1-1.5 2.9-2.1 4.1-1.8 3.2-3.4 6.5-4.9 9.9-.3.6-1 1.9-1.1 2.7-.1.6 1.1 1.3.9 1.8-.3.8-2 2.2-2.4 3.3-1.5 3.4-2.6 7.4-2.8 11.1-.3 3.9 2.1 7.1 4.4 10.1.4.5 1.9 3.1 2.8 3.1 2 0 1.6-1.8 1.2-2.7-.7-1.9-3.1-3-4.2-4.6-1.3-1.9-1.7-5.3-1.4-7.5.4-2.9 1.5-7.1 3.1-9.5 2.2-3.5 5.7-3.4 9.5-3.4 3.6 0 7.1-.7 10.7-.9 2.8-.1 6.2.8 8-1.6 2.1-2.9 3.2-8.4 4.4-11.8.6-1.9 1.1-3.8 1.7-5.7.6-2.2.5-3.7 2.6-4.3 2.9-.8 7.7.8 10.3 2.1 3.8 2 5.8 4.3 6.1 8.4.3 3.9 1.6 7.4 1.7 11.4.1 4.3.4 9.1-.4 13.4-1.7 9-6.1 19.7-11 27.3-1.4-1.7-2.3-3.8-3.9-5.3-1.9-1.8-4.5-2.8-7-3.7-4.7-1.8-8.4-2-13.4-1.7-5 .3-9.9.7-14.6 2.5-4.6 1.8-10.2 3-13 7.2zm30.7 5.7c.8 1.7 1.3 1.5-.1 2.8-.8.7-2.8.8-3.8 1-3.2.5-6.5.7-9.7.6-3.8 0-14.1-1.4-15.6-5.9-1.3-4.1 5.5-7 8-8.1 5.5-2.2 11.1-3.2 17-3.6 6.1-.4 10.8-.3 16.3 2.7 2.4 1.3 4.1 2.7 5.2 5.2.4.8.3 2 1.2 2.5-.8-.5 3.4-.6 2.7-.4 4-1 5-6.3 6.6-10.2 2.4-5.8 4.6-11.7 6.7-17.6 1.7 1.6 1.7 5.7 2.2 7.8.7 3.1 1.6 6.1 2.3 9.2.8 3.1 1.1 6.2 1.8 9.3.5 2.3 2.5 6.2 1.9 8.5-.7 2.8-10.3 1.7-13.1 1.7-5.6.1-11.3.6-16.9.2-1.5-.1-5 0-3.8-2.7 1-2.2 6.2-1.7 7.9-3.2 1.7-1.6 1.4-3-1-2.6-1.4.3-5.2 4.3-6.9 3-1.3-1-.2-4.2-.7-5.6-.6-1.6-1.7-2.7-3.3-2.9-2.1-.4-4.2.9-4.4 3-.1.8.3 2.1.2 2.6-.1 1.4-1.6.8-.7 2.7zM225 341.9c1.5.7.5 3.7 0 4.6-1.1 2-3.2 3-5.4 3.5-2.9.6-9.7 1.4-12-1.4-2.6-3.1 2.2-7.3 5.6-4.9.9.6 3.3 4.3 4.3 1.5.5-1.3-3-3.8-3.9-4.2 2.8-2.4 3.2 1.9 5.3 3 3.4 1.6 1.7-2.1.7-3.7 1.9-.2 3.7.8 5.4 1.6zm18.8-21.2c2.2-.3 4.3-.6 6.5-.3-1.5 2.4-7.2 5.9-6.5.3zm13.1 23.9c-2.6 2.5-10.6 3.9-11.2-1.2-.1-.8.1-2.4.7-3.1 1.2-1.6.3-.6 2-.9 1.7-.3 4.7 1.6 6 .9 2.7-1.5-.5-2.3-1-3-1.5-2.1.7-1.4 2.5-.9 1.1.3.7 1.4 2 .6 1.5-.9.1-1.5.1-2.1 0 1.3-.8-3.3 0-2.2-.6-.7-1.5-.8-2.4-.9 2.8-3.3 6.8.5 7.2 3.7.3 3.8-3.5 6.9-5.9 9.1zm43.5-90.8c-1.2 8-1.9 15.9-4.4 23.7-2.5 7.7-6.7 14.5-9.4 22.1-4.5 12.5-17.7 30.7-8.9 44-3.3 1-6.6.8-10 1-3 .2-5.8 1-8.8 1.2 2.5-2.9 6-6.1 5.9-10.3-.1-3.3-3.4-6.6-6.7-6.9-2.5-.2-3.8 1.3-5.9 2.3-2.3 1.1-2.2 1-3.8-1.5-1.5-2.4-1.7-2.5 0-4.5 1.3-1.6 3.6-3.4 5.7-4.1 1.5-.5 8.4.7 8.6-1.6.1-2-9.4-1.3-11-1.2-4.1.2-8.1.2-12.2.3-2.4 0-3.2.6-4.2-1.4-.9-1.9-.1-5.9.1-7.9 1.1-9.9 1.6-19.7 2.4-29.6.6-8.5-.4-16.8.6-25.3.2-1.9 2.1-8.4-.3-9.5-3.8-1.8-1.2 5-1.1 6.2.2 3.1-.9 7.6-1.3 11-.6 4.5.3 9.2.1 13.7-.3 9-.5 18.5-2.1 27.4-.8 4.5.2 9.9-1.1 14.2-.6 2.2-.8 1.7-3.3 2-2.4.3-4.7.9-7.1 1.2-9.4.9-19 1-28.4 2-8.4.8-17.1 1-25.4 2.2-7.8 1.2-15.8.5-23.4 2.6-4.1 1.1-8.4.7-12.6 1.4-2.1.3-4.1.5-6.2.7-2 .2-4.9-.3-6.8.2-3.7.9-.4 2.5 1.9 2.3 4.8-.5 9.5-1.9 14.4-2.1 4.6-.2 8.6-1.1 13.1-1.7 5-.7 10-.3 15-1.1 5-.7 10.1-.6 15.2-1.1 4.8-.4 9.6-1 14.4-1.5 10.1-.9 20.2-1.6 30.3-2.5.9-.1 1.9 0 2.9 0 2.4-.1 1.7-.6 3.4 1 1.5 1.6 3 4.3 2 6.1-.8 1.5-3.2 2.9-4.4 4-1.2 1.1-3.5 4-4.8 4.6-1.4.6-5-.2-7.1.3-1.6.4-4.1 1-5.6 1.9-4.2 2.5-5.3 5.5-5.7 10.1-1.3-1.5-8.3-.1-10.3-.1-4.6 0-9.2-.2-13.7-.4-8.4-.5-16.9.1-25.3.1-8.4 0-16.4 1.4-24.8 1.6-5 .1-15.9 4.3-16.5-2.7-1.6-18.4 1.6-37.1.6-55.5-.5-9-.9-17.8-1.1-26.9-.1-4.1-.8-8.2-.4-12.3.1-1.7.6-2.9.9-4.5.5-2.5-.2-3 2.7-3.3 3.7-.4 7.4-.1 11.1-.3 4.4-.3 8.9-.8 13.3-1 10.4-.5 20.8-1.9 31.3-2.2-2.5-4.2-3.2-9.7-4.4-14.4-.6-2.4-1.7-4.3-2.4-6.6-.1-.5-.3-.7-.4-1.3-.1-2.1 1.8-5 3.9-3.5 1.6 1.2 1.1 6.6 1.1 8.2 0 6.2.7 12.2 4.2 17.5 3.5 5.2 8.4 9.5 14.6 10.3 6.2.8 13.3-.4 19.5-1.8 1.6-.4 6.9-1.9 3.1-2.8-1.5-.4-5.4 1.2-7 1.5-1.8.3-3.6.6-5.3.8-3.8.5-6.7 1.1-10.5.3-2.2-.5-7-1.8-7.1-4.8 5.5-1.1 11.6-.8 17.1-.8h9.7c2.6 0 6.7-.7 9.2.3-1.1 1.1-6.7 3.1-2.6 3.5 4.1.4 7.4-4.5 10.9-5.8 1.2 3.4-9.8 7.3-12.2 8.1-6 2.2-13.2 3.8-19.6 4.1-4.9.2-10.7-1.5-14.5-4.6-2-1.6-3.6-4-5.6-5.6-2.4-1.9-6.7-.7-9.9-.5-11.1.8-22.4 2.3-33.4 2.9-2.5.1-5.3.2-7.9.2-2.7 0-3.8-.6-4.2 2.3-.8 5.7-.3 12.2-.4 18 0 5.4-.6 10.8-.8 16.1-.3 7.1-1.2 14.1-1.3 21.1-.1 5.5-.4 10.9-.8 16.4-.2 1.8-1.2 6.5-.4 8.1 1.5 2.9 2.9-.5 3.1-2.2.6-6.6 1.1-14.2.8-20.8-.2-6 1.1-11.8 1.1-17.8 0-3.6-.1-7 .3-10.6.3-2.8-.5-5.8-.3-8.3.2-2.7.8-5.5.9-8.3.1-2.3-.9-9.6.5-11.4 1.2-1.5 6.8-1.2 8.5-1.4 3.9-.5 7.9-.7 11.8-1.1 7.1-.8 14.1-1.3 21.2-2 2.6-.2 6.9-.9 9.2.6 2.4 1.5 3.9 4.7 6.4 6.4 3.1 2.2 7 3.3 10.7 4.1 3.4.7 7-.6 10.2.3 0 1.1-2.5 2.7-1.4 3.8.4.4 2.5-.7 3.1-1.5.5-.6.6-2 1-2.4.8-.9 1.6-.9 3.2-1.2 2.3-.5 4.6-1.1 6.9-1.8 4.2-1.3 8.1-3.3 11.8-5.7 1.7-1.1 3.4-2.7 5.4-3.4 2.5-.8 5.8-.4 8.3-.5 5.1-.2 10.2-.2 15.4.3 2 .2 5.6 1.2 7.4 0 1.6-1.1 1.5-2-.4-2.7-.7-.2-3 .3-3.5.4-.8 0-1.7.2-2.9.1-2.3-.2-4.6-.2-6.9-.2-4.9.1-10 .3-14.8-.1 2.4-4.3 5.3-3.8 9.9-4.3 4.9-.5 9.7-.7 14.7-.9 2.2-.1 4.3-.1 6.5-.1 2.6 0 3.6-.3 4.5 2.3.6 1.7 3.1 9.4-.5 9.2-1.5-.1-.7-3-2.9-2.3-1.2.4-.7 2.6-.7 3.5.1 4.7-.1 9.5.1 14.2.1 4.7.6 9.5.2 14.2-.4 4.7.3 9.2.2 13.9-.1 2.9-1.9 25.9 0 26.2 3.1.4 1.9-9.7 2.2-11.2.5-2.1 0-.6 1.3-2.3.7-.9 1-.5 2-2 1.4-2.1 2.4-4.5 3.8-6.6 4.8-7 10.4-13.3 15-20.4 2.3-3.5 4.7-7.2 7.3-10.6.9-1.1 4.3-3.6 4-5.1-.5-2.2-1.4-.9-2.4-.1-3.2 2.8-5.4 7.3-7.8 10.8-2.5 3.8-5.4 7.7-8.3 11.3-2.3 2.8-4.4 5.6-6.5 8.6-2.6 3.6-5 8.3-8.2 11.2-.2-3 0-6 .1-9 0-1.1 0-2.4.2-3.5.6-3.5.3-.5 1.6-2.5 2-2.9 2.4-6.6 3.8-9.9 1.8-4.1 4.1-8.2 6.1-12.3.5-1 2.3-4.4 1.7-5.5-1.1-1.9-5.1.2-6.4.8-1.7.7-3.9 2.1-5.8 2-2.4-.1-2.1-1.1-1.9-3.5.3-3.3 1-3 4.2-3.7 2.4-.5 4.8-.9 7.2-1.5 4-1.1 8-2.5 12.1-3.1 3.9-.6 7.7-.2 11.5-.2-.2 1.1 0 2.6-.2 4.2zm-34.7 23.8c-.3-2.4 0-4.8-.1-7.2-.1-1.7-.7-4.9.4-6.4 1-1.3 3.6-1.4 5-1.8 1.8-.6 3.8-2.1 5.8-1.8.1 3.7-4 9-5.6 12.4-.9 1.8-1.8 3.6-2.6 5.5-.6 1.6-.9 4.5-2.3 5.7-1.2-2.2-.3-4-.6-6.4zm36.7-44.8c-.4 2.3-.4 4.7-.5 7-.1 1.4.4 4.6-.7 5.8-1.1 1.2-5.1.8-7 1-2.5.3-5 .8-7.4 1.3-2.2.4-4.4.7-6.6 1.3-1.9.5-2.5 1.6-4 2.1-1.6.5-2.5-.2-3.9-.2-2 .1-4.4 1-6.4 1.4 0-4.6 4.1-1.2 5.8-3.8.8-1.2-1-4-1.3-5.8-.2-1.4-.5-3.2-.6-4.6 0-1.6-.9-1.3 1-2.1s5.8-.2 7.9-.3c2.6 0 5.3-.1 7.9-.1 2.6 0 5.2-.3 7.8-.2 1.2.1 6.5 1.6 5.6-1.4-.7-2.2-12.2-.6-14.1-.6-5.7.3-11.4.3-17.2.4-10.9.3-22 0-32.8 1.7.3-1.9 1.3-5.6 2.7-7 2.2-2.1 8-1.4 11.1-1.5 5.6-.2 11.2-.8 16.7-.6 3.4.1 6.7-.2 10.1-.1 3.6.1 7-1 10.5-.9 3.3.1 6.8-.2 10.1-.1 1 0 4.4.6 4.9 1.1 1.1 1.3.6 4.8.4 6.2zm27.7-21.3c0-.6-.4-3.3 0-3.8 1.2-1.4 3.5-.2 3.9.8 1 2.2-1.2 6.9-1.3 9.3-.1 1.4 1 3.7-.8 4-1.6.3-1.6-.9-1.8-2.3-.3-2.5-.1-5.4 0-8zm25.1 48.2c-.6 4.5.1 9-.2 13.5-.4 5-.9 10.1-.8 15.2.1 5 .4 10 .1 15-.1 1.8 0 3.2 0 5 0 2.9-.2 3.1-2.5 3.5-3.9.8-8 .7-11.8 2.4-4.2 1.8-7.7 5.1-11.4 7.7-7.1 5-14 11.1-22.1 14.4-3.7 1.5-7.7 2.2-10.2-1.4.1.2-1.3-2.8-1.2-2.4-.7-2.5.4-2 1.2-4.2.6-1.7-.2-3.8 0-5.5.2-2.6 1.3-5.1 2.1-7.5 1.7-5.2 3.6-10.3 5.9-15.3 4-8.8 10.5-16.4 14.8-25.1 1.7-3.5 2.8-7.4 4.2-11.1 1.7-4.6 3.6-9.2 4.5-14 .6-3.2.5-12.2 3.1-13.6 2-1 6.2-.8 8.4-1.1 2.6-.4 5.2-.5 7.8-.8 1.3-.1 6.5-1.3 7.6-.2.8.8.1 7.7.1 8.9.4 5.3 1.1 11.1.4 16.6zm9.6-16.5c-.8 13.5-1.3 27.2-1 40.7.2 6.7-1 13.4-1.1 20.1-.1 2.3.7 8.7-1.2 9.5-.7.3-3.6-.5-4.2-1-1-.9-.8-2.3-.8-3.5-.5-13.7 0-27.6.5-41.2.2-6.6 2.4-15.4-.2-21.8-.7-1.7-1.1-1.4-.6-3.3.4-1.5.9-2.1 1.1-3.8.1-.8-.2-4.6.5-5.2.8-.8 5.8-.3 7-.3-.1 3.2.2 6.5 0 9.8zm74.6 69.2c.7.1 7.8 1.2 5.5 3.3-.8.7-2.9-2.1-4-.4-1.1 1.7 1.5 2.3 1.8 3.4 1 3.1-3.5 2.6-4.9.9-2.3-2.9-1-5.4 1.6-7.2zm-2.7-30c.4.6.8 1.3 1.2 2-1.5-.1-1.5-.1-1.2-2zm4.5-20.1c-.9.8-4.9.5-5.7-.4-.4-.5-.3-3.8-.2-4.3.6-1.9.4-1.4 2.5-2.2 2.6-.9 4.2-2.8 5.2.9.7 2.2 0 4.4-1.8 6zm-5.4-18.5c1.8-2.3 10.3 5.3 3.4 8.6-2.6 1.2-4.7.2-5.5-2.5-.5-1.8-.3-1.1.4-3 .5-1.1 1-2.2 1.7-3.1zm-2-2.9c-1.4-.9-2.7-1.6-2.6-3.6 2.5 1 2.7 1.3 2.6 3.6zm-7.9-.7c.3-3.2 4-.8 5 .3 2 2.4 1.5 3.7.6 6.4-1.1-1.1-2.1-2.2-3.5-3.1-1.9-1.2-2.3-1.1-2.1-3.6zm-6.9-8c-2-.4-2.8.4-4.5 1.1 1-3.8 6.4-4.7 9.4-2.7 1.4.9 2.3 2.6 1.4 4.3-1.1 2.2-3 .3-5.2.4-1.5.1-2.5.5-3.4 1.7-.5.6-.9 3.1-1.6 3.2-2 .4-.3-3.4.3-4.1 1.3-1.5 2.9-2.1 4.8-1.6.1-1.2.1-2-1.2-2.3zm3.7 7c-.1.6-.2 1.2-.3 1.9-1.4-.4-2.7-.9-4.1-1.3.3-2.5 4.8-3 4.4-.6zm-11.6-7.2c.7.4.9 1 .5 1.8-.9-.1-1.8-.2-2.7-.4.4-.7 1.2-1.8 2.2-1.4zm-8.8 11.3c.3-1.1 1.8-1.1 2.6-1.7 1.3-1 1.2-1.4 2.1-2.8.9-1.5 2.1-3.8 4.1-1.7 3.6 3.8-7 7.6-8.8 9.3-.7-1.2-.3-1.6 0-3.1zm-7.3 8.8c-.1-1.6-.3-4.4 1.6-5 1.2-.4 1.8 1.5 2.9.1.4 1.9 0 5-1.4 6.4-1.4 1.5-3 1-3.1-1.5zm0 65.4c-.1.8-1.4 6-2.3 3-.3-1 1.7-2.1.8-3.2-1.1-1.5-1.9.3-3.3.3.6-1.3 2.4-4.9 3.7-5.1 2.3-.3 3.1 3.9 3.4 5.3-.7-.1-1.5-.2-2.3-.3zm24.9-14.5c-.7 2.6.5 4.8.7 7.4.2 3.4.2 4.7-3.4 5.2-2.6.3-4.1-.1-5.9 1.7-1.8 1.9-2.7 4.4-5.3 5.5-2.3-4.7.9-11.3.5-16.2-.6-7.9-6.6 5.3-7.9 5.5-2 .4-3.7-3.3-3.5-4.6.3-2.2 3-5.1 4.4-6.7 1.6-1.8 3.6-3.3 5.9-4.2 2.7-1 4.2-1.9 6.6-3.5.3 1.2 1.2 8.9 3.3 5.1.4-.7-.6-6.6-.9-7.7-.7-2.1-.4-1.8-3-1.4-1.9.3-2.1.8-3.9.3-2.7-.6-5.7-2.9-7.2-5-2.5-3.5-2.5-7.4-2.9-11.5-.2-2.1.1-8-2.6-7.1-1.6.5-1.6 2.6-3.7 1.5-1.4-.7-1.8-3-1.8-4.4.1-2.6 2-5.5 4.8-3.8 2.2 1.3 2.3 4.3 4.4.4.9-1.7.8-3.7 1.9-5.3 1-1.5 1.6-1.1 2.7-1.7 1.1-.6 2-.3 2-2.4 0-.5-1.7-.1-1.4-1 1.1-3.2 6.9-4.5 9.5-4.4 1 .1 1.9.5 3 .1 1.2-.4 1.7-2.5 3.2-1.7.7.4.4 2.3 1.7 2.8 1.7.7 3-.8 4.7-.3 1.8.5 1.2 1.1 2.2 2.2.9 1 1.7 1.4 2.8 2.4 2.5 2.2 3.1 7 1.9 10.1-2.5-1.6-3.6-2.5-6.7-1.9-1.7.4-4.1 1-5.1 2.7-1.2 2.2-2.3 8.5-1.6 10.8 1.5 4.7 7.9 4.5 11.4 2.7 2.2-1.1 4.1-3.1 4.7-5.6.3-1.4-1.1-5.3 0-6 1 1.6 1.9 2 3.6 2.7-1.1 1.1-3.6 2.9-3.5 4.7.3 3.1 2.2.7 3.3-.3 3.6-3.6 5.9.1 4.8 4.2-1.2 4.4-4 5.9-8 4.3-2.2-.9-2.3-1-4 1-1.2 1.4-2.4 2.5-3.8 3.8-1.1.9-2 2.1-3.2 2.9-1.8 1.1-4.9.9-6.5 2-1 .7-.8 4.4-.6 6.1.1 1.5-.2 2.5 1.7 3s4.2-1.3 6.1-1.2c2.2.1 4 1.8 5.4 3.3 2.8 3.3 5.6 6.7 8.4 10-1.4 1-3.4 3.4-5.3 2.9-1.6-.5-4.5-4.3-5.8-5.5-1.2-1.2-2.2-3.6-3.7-4.4-.7-.5-4-.9-4.4.5zm7.2-38.1c-1.9-3 2.1-4 4-2.5 2.1 1.7 2.2 5.3 1.1 7.6-.8 1.6-4.3 4.7-5.9 2.4-.6-.9.1-1.8.3-2.7.3-1.8.7-3 .5-4.8z"/>
  <path d="M237.2 40.5c0 2.9-.4 6.1-.1 8.9.1 1.3.9 2.2.1 3.2-.9 1.2-1.7 1.1-2.4.1-1.4-2-.1-8.3 0-10.7 0-1.1-.4-3.9.4-4.5.8-.6 2.4.3 3.3.4 2.7.3 5.5-.6 8.2-.7 3.3-.2 6.7-.2 10-.4 6.8-.4 13.7-.9 20.5-.7 13.2.3 26.7-1.6 40-2.2 13.1-.6 26.4-2.1 39.5-1.9 6.9.1 13.7-.4 20.6-.7 7.1-.3 14.1.4 21.2 0 13.8-.9 28-1.4 41.9-1.4 14.9 0 29.7-1.1 44.6-1.2 3.1 0 6.3-.8 9.4-.8 3.7 0 2.5 2.2 2.7 5.3.2 2.6 1.1 4.9.9 7.6-.2 3.6-.6 7-.4 10.6.4 6.6 1.4 13.2 1.1 19.9-.2 5.4-1.4 11-.9 16.4.1 1.4.6 3 .2 4.3-.4 1.2-1.3 1.9-1.6 3.2-.6 3-.1 6.5-.5 9.6-.8 6.4-1.8 12.9-2.3 19.3-1 13.8-1.5 27.6-3 41.3-.3 3.1-.7 6.3-.7 9.3 0 1.3.5 2.8.2 4.1-.1.5-.7.8-.8 1.2 0 .3.1 1.8.1 1.7-1.2 2.6-3.5 1.9-5.9 1.8-3.8-.1-7.6 0-11.5.1-13.2.2-26.4 1.8-39.6 1.8-3.1 0-5.7.7-8.7 1.1-2.4.4-4.4-.6-7.3-.2-6.8 1-13.7.8-20.5 1.5-14 1.4-28.2 1.9-42.3 3.4-3.4.4-6.8.8-10.3 1.1-2 .2-7.7 2-9.4.6-2.8-2.3 3.7-2.4 5.1-2.5 3.8-.3 7.6-.4 11.4-.9 13.6-1.7 27.3-2.5 41-3.4 6.2-.4 12.3-.8 18.5-1.3 2.8-.2 7.8 0 10.3-1.1 2.3-1.1 1.2-4.1 1.2-6.3 0-1.3-1.7-4.6-.7-5.6 1.1-1.2 6.2 0 7.5-.1 6.1-.6 12.4-1 18.6-1.4 3.4-.2 6.6-.7 9.9-1.5 3.8-.9 6.2-1.8 5.4 3-.4 2.5-.9 4.6-1.1 7-.3 4.1 2.3 2.8 5.4 2.7 7.1-.2 14.1-.3 21.2-.9-1.1-6.5.9-14.1 1.3-20.7.5-7.3 1.1-14.7 1.7-22.1 1-12.9 3.7-26.1 3.6-39 0-6 1-12 1-18 0-7.5.6-14.9.4-22.4-.1-6.1.3-12.4-.2-18.5-.1-1.7.2-7.3-.9-8.6-1.3-1.6-5.9-.7-7.7-.6-13.5.8-26.9.2-40.4.5-13.2.3-26.5 1.7-39.7 1.5-12.9-.2-26.4-.6-39.2.7-6.7.7-13.4 0-20.1.6-6.8.6-13.6.5-20.5 1-29.8 2.5-60 2.1-89.7 5.5zM458.9 178c-6.2-1.2-13.4.6-19.7 1-2.4.2-16.9-.9-15.1 3.6.9 2.2 6.5.7 8.8.6 3.7-.2 7.4-.1 11.1-.5 3.7-.3 7.3-.5 11-.7 3.2-.1 3.6-.8 3.9-4zm-10.3-6.3c.4 1.8-.8 3.1-1.1 4.7 2.3.4 7.2.1 6.8-3.3-.3-2.4-3.5-1.5-5.7-1.4zm-19.6 5c2.4 2.7 5.6-1.6 5.8-3.8-2.9-.7-4.3 1.8-5.8 3.8zm31.1-6.4c-2.9-.8-3.6 3.1-3.5 5.2 3.4 1 3.2-2.9 3.5-5.2zm-16.1 6.9c.8-1.7 2.4-3.1 2.2-5.2-3 0-3.3 2-4.7 4.6.8.2 1.6.4 2.5.6zm-8.1 0c2.3.1 4.4-2.2 4.5-4.5-2.6-.3-4.6 1.5-4.5 4.5zm-11.6.5c2 .6 3.1-2.6 3.9-4-3.1-.8-4.3 1.4-3.9 4zm60 132.5c4.4-.1 8.2-2.7 12.1-4.5-5.3-5.3-6-11.8-7-19-.8-6.6 1.4-16.6 6.3-21.5 2.1-2.1 5-4.9 7.6-6.2.6-.3 3.7-1.7 4.4-.7.7 1-2.5 2.5-2.9 3.2-1.6 2.5.7 6.9 2.9 8.3 3.3 2.2 8 1.3 11.6.6 3.9-.7 19.1-7.1 13.3-13.2-1.1-1.2-2.5-.9-4.1-1.5-1.4-.5-2.1-1.3-3.8-1.3-2.2-.1-4.9.4-7.1.9-1.5.3-3.9 2-5.3 1.9-4.3-.3.2-3.2 1.7-3.6 3.7-1.1 7.8-1.3 11.7-1.2 7.9.1 15.2 3.3 19.4 9.9 3.8 6 5.1 13.3 4.8 20.5-.1 3.2-.1 7.4-1.9 10.1-2.7 4.1-3.8 1.4-2.7-2.1 1.2-3.8 2.2-6.8 1.7-10.8-.5-4.2-1.3-8.9-2.6-12.9-.9-2.9-2.9-7.3-5.7-8.7-2-1.1-2.4-.6-3 .9-.5 1.2-1.1 3.7-1.4 5-.5 2.4.5 2.3 2 4.4.9 1.3 1.6 2.9 2.2 4.3 1.1 2.8 1.4 6.2 1.7 9.2.2 1.9 0 4-.1 5.9 0 .6-1.2 4.9-1 5.2.3.8 4.3 2.1 5.2 2.6 1.9.9 3.8 1.3 5.9 1.8 2 .5 4 1.2 6 1.7 1.2.3 3.8.3 4.6 1.2 1.5 1.7.1 7.9-.1 10.4-.2 3.6 1.1 9.3-.4 12.6-1.3 2.7-5.8 3.8-8.2 5.2-1.9 1.1-3.8 2.2-5.6 3.3-2.2 1.3-2 1.1-4.5.4-4.1-1.2-8.3-1.6-12.6-2.1-3.2-.4-6.7.4-7.8-3.2-1.3-4 .4-9.3 1-13.4.4-2.7-.6-7.6 3-7.9 1.9-.2 4.9 1.1 6.9 1.5 2 .3 4.1.6 6.1 1 1.3.2 5.2.4 4.1 2.4-.9 1.5-4.1.1-5.4-.2-4-.9-7.9-1.6-11.9-2.4-.4 2.9-.6 5.9-1.1 8.8-1 .6-1.1 1.4-.4 2.4 0 .5 0 1-.1 1.5 0 1.7-.7 3.7.1 5.4 1.1 2.3 2.9 1.9 5.4 2.1 3.6.4 7.1.9 10.7 1.5 4.1.7 3.2-2.5 3.3-5.8 0-1.5-.1-8.1 1.1-9.2 3.2-2.9 1.4 4.9 1.4 5.1-.6 3.3-1.3 7.1-1.1 10.5 2.4.3 5.4-2.7 7.5-3.9 2.1-1.1 4.8-1.7 5.9-3.9 1.1-2.3.5-6.1.7-8.6.2-3.2.5-6.4.4-9.7-3.1.9-5.9 3.2-8.4 5.2-1 .8-4.8 5.6-6.2 3.7-1.6-2.2 14-9.2 13.5-11.2-.3-1.1-8.4-2.3-9.8-2.7-2.8-.7-5.8-3-8.6-3.2-2.5-.2-6 2.5-8.2 3.8-1.8 1.1-4.7 5-6.7 5-3 0-.1-4.2.2-6.3.4-3.5 1.2-7.2 1.4-10.7.2-3.6.6-14.9-4.1-16.2-2.4-.7-6.2 1.4-7.8 3-2.6 2.5-2.3 5.2-2.8 8.8-.5 3.9-1.3 7.8-1.2 11.7.1 1.7.1 3.5.8 5.1.7 1.4 1.9 2.1 1.2 3.8 3.3-.1 6.8-.3 10 .7-.5 2.9-6.1 5.7-8.3 7.1-1.4.9-3.9 1.6-4.7 3-.8 1.4 0 3.5 0 5 .1 2.1-2.5 9.7-.7 11 .8.6 4-1.5 5.1-2.1 1.3-.6 1.5-.8 1.9-1.7-.2-.4-.3-.8-.5-1.2-.4-.7-.3-1.2.6-1.7.5-2.1 1.2-4 1.3-6.2.1-1.6-.6-4 .2-5.4.9-1.6 2.1-1.7 3-.3 1 1.6-.3 4.2-.6 5.8-.6 3.4.9 8.8-1.9 11.2-1.4 1.2-3.8 1.6-5.5 2.4-2 1.1-4 2.1-6.1 3.1-1.7-4.8 1.2-10.8.7-15.9-.3-3.8-1.1-3.8-4.6-4.2-2.8-.3-5.5-1-8.4-1.2-1.7-.1-5-.8-6.2.8-1.3 1.8-.7 5.8-.7 7.9 0 2.4-.4 4.8-.4 7.2 0 3.8-.2 5 3.7 4.6 1.9-.2 14-2.5 12.4.6-1 1.8-5 .8-6.9 1-2.7.4-5.1.9-7.9.8-6.2-.3-2.8-7.9-2.5-12 .2-2.5.3-5.1.3-7.6 0-1.2 0-2.8-.3-4-.4-.8-1.7-1.1-1.2-2.7zm17-46.8c-5.6 4.6-9 11.5-9.6 18.9-.4 5.6.7 16.4 5.8 20.2 1.3 1 7.7 3.5 9 2 1.2-1.3.7-7.9.9-9.9.9-7.3 1.1-14.3 3.6-21.3-2.4-.6-5.3-1.2-7-3.1-1.6-1.8-1.7-4.7-2.7-6.8zm24.7 7.9c3 9.8 1.9 19.3 1 29.3 3-.9 7.3-3.5 9.8-5.5 2.1-1.7.5-1.1.2-3.2-.3-1.6 1-4.7 1.1-6.4.1-4.2-.3-8.9-2.3-12.7-.6-1.2-2-4.2-3.3-4.7-2.1-.9-4.8 2-6.5 3.2zm-35.4 39.9c2.9 1 6.8.4 9.8.5 1 0 2.2-.1 3.2.1 1.1.2 1.9 1.1 2.8 1.3 3.2.7 10.3-4 11.2-7.4-1.9.2-4 .5-5.9.9-.9.2-2.2 1.2-3.2 1.2-.7 0-2-.6-2.7-.7-4.4-.7-12.4-.1-15.2 4.1z"/>
  <path d="M286.9 115.7c-1.4.3-2.9.6-2.3-1.6.4-1.5 2.8-1 3.2-2.1.9-2.2-1-1.7-2.2-1.5-2 .5-1.2 1.9-2.5.4-1.6-2.1 1.3-4.9 1.2-6.7 0-2.1.9-1.9-2-1.2-1.1.3-3 .6-3.4 1.9-1.3-1.1-2.5-2.4-4.3-2.7.2.8.4 1.7.6 2.5-1.6-.6-1.5-3.3-3-4.5-1.6-1.1-4.3-1.8-6.1-2.6-5.3-2.4-10.6-.3-15.3 2.4-2 1.1-3.3 2.6-4.7 3.4-2.1 1.3-4.4 1.1-6.3 2.8-3 2.7-7.1 11.1-1.4 12.9-2 1.7-3.3 3.6-3.6 6.2-.3 2.8 1.2 4.9 1.4 7.6.1 2.1-.7 2.9.1 5 .9 2.4 2.7 3.1 4.2 4.8 2.9 3.4 2.7 8.8 7 11.7 4.1 2.7 10.1 4 14.9 3.6 4.7-.4 9-1.1 12.6-4 4-3.2 6.9-6.3 8.9-11 2.3-5.4 4-10.4 3.7-16.3-.1-2.4-1.8-4.7-1.8-6.9 0-3 2.5-1.9 4.8-1.1.5-1.7 1-1.7-.6-2.8-.8-.6-2-.4-3.1-.2zm-15.2-12.2c-2.4.1-2.5.5-2.7-1.9 1.2.2 2 .9 2.7 1.9zm-7.4-1c.2.2.4.5.7.7-1.4.7-.8-.8-.7-.7zm-2.5-.7c-.1.9-3.3.4-4.2.4 1.4-1.1 2.7-.6 4.2-.4zm-5 .7c-.7 2.1-.7 2.7 1.4 3.4.1 2.3-2.8-.2-3.2-.8-1.2-2.3.1-1.3 1.8-2.6zm-8.3 1.6c.3-.3.7-.6 1.1-.9-.4 1.1-1.5 1.4-1.1.9zm0 7.3c.6-1.2 1.4.3 1.3 1-.2 1.5-2.5 1.8-3.5 1.5.8-.8 1.7-1.5 2.2-2.5zm-2.9 6c.1-.6.3-1.2.4-1.7.7.8.6 1.3-.4 1.7zm-5.2 16.5c-.9-.1-1-.7-1.4-1.4.5-.1 1-.2 1.4-.4 0 .6.1 1.3 0 1.8zm-.5-7.1c-2.2-.9-3.4-1-2-3.4.7-1.2 2.1-2.3 3.5-2.5.2 2.9 1.3 4.8-1.5 5.9zm0-12.9c.1 1.5 0 3 0 4.5-.7-1-1.6-1.2-2.1-2.3-.7-1.7.6-4.3 1.5-5.6 1.1-1.7 4.4-5.4 6.8-4.6-2.3 3-6.7 3.3-6.2 8zm45.2 19.7c-.8 3.8-3.5 12.2-6.8 14.7-1.2.9-2.6.7-3.8 1.2-1.2.5-2.3 1.5-3.6 2-3.4 1.4-7.6 2.2-11.3 2.4-6.7.4-11.1-2-14.1-7.7-1-1.9-1.9-3.6-1.9-5.7.1-2 .1-3.2-.2-5.2-.2-1.6-.1-3.6.2-5.2 2.1.2 1.7 1.1 2-.7 0-.2-.6-1.2-.7-1.6.2-.3.4-.6.7-.8-.3-.4-.5-.9-.7-1.4.5-3.6 3.3-7.9 6.4-10.1.4 1 .6 1.8 1.7 1.8 2 0 .8-1.1 1.3-2.1.4-.7 0-1.2.8-1.8 1.1-.9 1.7.1 2.5 0 2.3-.3 3.9-2.2 5.1-3.7-.1.1 1.4-1.2 1.4-1.2-.1-1 .4-1.5 1.5-1.3.3.5.7 1 1 1.5 1.2-1.9 2.6-3.1 5-2.1 2.8 1.1 3.1 2.4 3.8-1.6 1.4.5.3 1.6.5 2.4.5 1.7.4 1.5 1.6 2.9l2.3 2.3c.6 1 .4 2.3 1.1 3.4 3.3 5 5.5 11.3 4.2 17.6z"/>
  <path d="M272.6 145c-.9-2.9-11.8-.3-14.3.1-1 .2-5.2.6-5.8 1.4-1.1 1.6 2.5 3.9 3.5 4.5 2.7 1.4 18.8 1.1 16.6-6zm-1.9 2c-1.6 2.7-16.2 7.3-15.3 1.4 3.1-.6 6.5-.8 9.5-1.6.6-.2 7.1-2.1 5.8.2zm198.6-41.6c-.4-3.2-4.5-1.8-6.1-.7-2.2 1.5-3.1 4.3-5.4 5.7 1.7-.7 2.3-.9 3.6-1.9.9-.7 1.4-1.6 2.5-2.2 1.8-.9 4.1-1.3 4.4 1.2.3 2.4-3.6 5.8-5 7.3-2 2-5 5-8 5.4-4.9.6-6.4-3.7-7.7-7.5-1.5-4.3-2.4-8.4-2-13.1.2-2.7.8-5.3 1.4-8 .4-1.9 2.6-7.5 1.8-9.3-1.6-3.9-6.8-1.9-8.6.5-2.8 3.9-.8 10.5-1.4 15-.7 5.5-2.9 10.8-5.2 15.8-1.3 2.9-5.7 9.3-9.4 9.1-2.3-.1-3-1.9-1.8-4.1 1-1.8 3.9-2.6 5.3-4.2 3.3-3.7 5.3-10.4 6.7-15.2 1.4-4.9 4.3-9.6 4-14.7-.1-2.2.1-5-2.2-6-2.6-1.2-7.1.7-9.5 1.5-1 .4-5.3 2.6-6.1 2-1-.8-.4-4.6.1-5.4 2.4-4 11.7-5.1 15.8-6.3 3-.9 5.1-1 8.3-1 2.6 0 5.2-.6 7.8-.2 2.6.4 5.3 1 6.1 3.4.7 2.1.5 6.8-.7 8.5-.8 1.1-.6.5-1.5 1.1-2.6 1.7-2.7.1-3.4 3.6-.6 3-1.4 5.9-2 8.9-.8 4.1-2.4 13.8 2.3 16.1-.8-4.9-.8-10.2-.1-15.1.4-2.3 1-4.7 1.7-7 .3-1 .7-2.9 1.6-3.6.9-.6 2.9 0 3.7-.7.6-.6 1-5.3 1.2-6.4.3-2 .4-4.9-.3-6.7-1.9-4.6-7.4-4.5-11.6-4.5-5.3 0-10.5.4-15.6 1.9-4.6 1.3-11.8 2.8-15.2 6.6-1.7 2-.7 2.7-.6 5.2.1 2.5-1 3.6 1.8 3.9 3.5.3 12-6 15-3.3 1 .9.5 5.2.5 6.5-.1 2-.7 3.7-1.5 5.6-1.8 4.4-2.8 9-4.6 13.4-.8 2-1.7 4.1-3 5.7-1.5 1.9-3.5 2.5-5.2 4.1-1.7 1.6-2.2 3.3-1.8 5.6.5 3.1 1.8 2.8 4.4 3 10.8.4 13.7-11.2 16.3-19.8 1.5-5 1.3-10 2.2-15.1.3-1.6.6-4.8 2.1-5.8 2.4-1.6 2.4 1.2 2 3.2-1.1 5.7-3.8 10.6-3.1 16.7.6 5.2.9 12.7 4.7 16.6 7 7.6 22.2-7.4 21.3-15.3zM321.3 362c8.2-1.1 16.5.1 24.7-.4 9.8-.6 19.7-.7 29.5-.9 20.4-.4 40.8-.1 61.1-.2 9.9 0 19.9-.8 29.8-.9 9.3-.1 18.7.4 27.9.5 1.9 0 4.8-.3 2.8 2.1-1.4 1.7-2.3.6-4.2.4-5.3-.6-11-.4-16.3-.6-10.6-.5-21.2-.3-31.7.1-9.4.3-18.5 1-27.8.8-10.4-.2-20.8-.4-31.3-.6-19.3-.4-38.7 1.4-58.1 1.1-9.5-.1-19-.4-28.6-.7-9.8-.3-19.5.8-29.3 1.6-18.6 1.6-37.3 1.3-56 1.7-19.8.4-39.6.7-59.4 1-19.4.3-38.3 4.6-57.6 4.6.2-2 .4-1.7 2.3-2.1 1.8-.4 4.1-.2 5.9-.3 3.8-.2 7.7-.3 11.5-.5 6.8-.3 13.3-1.1 19.9-2.1 13.9-2.1 28.1-1.7 42-2.2 8.6-.3 17.2.2 25.8-.2 7.7-.3 15.4-.7 23.1-.5 15.6.5 31.8-.1 47.3-1.9 8-.9 16-1.2 24-1.1 7.2.2 15.9-1.1 22.7 1.3zm-193 24.9c4.5 0 8.9-.1 13.4-.1 5.7 0 10.9.8 16.5 1.4 9.7 1 20.2-1 29.8-1.8 21.6-1.8 43.2.1 64.8.1 20.9.1 41.8.2 62.7-.3 10.9-.3 21.6-1.4 32.4-2.2 10.2-.8 20.5-.8 30.7-1.3 11.7-.6 23.5-.2 35.1.3 6.6.3 13.1 1.2 19.7.6 2.8-.3 5.6-.7 8.4-.9 2.3-.2 7.2-1.3 9.2 0-1 3.9-9.4 2.5-12.5 2.7-5.9.5-11.3.5-17.2.2-11.3-.7-22.5-1.3-33.9-1.1-22.4.4-44.6 2.1-66.9 3.5-20.3 1.3-40.5-.4-60.8.1-20.9.5-41.7-.9-62.6-.6-12.9.2-25.6 3.6-38.5 2.6-6.2-.5-12-1.3-18.3-1.4-2.7 0-5 0-7.7.4-2 .2-4.1.7-4.3-2.2zm-50.9-43.5c1.4 0 6.5 1 5.9-1.6-.1-.2-1.7-.3-2-1-.3-1 .3-2.6.3-3.5.1-1.5.8-3.5-1.2-3.7-.8-.1-1.4 1-2 1.1-3 .5-1.7-2-1.8-4.1 0-3.6-1.2-3.3 2.3-3.9 2-.4 1.7.5 2.5-1.7.3-.9-.8-3.8-.2-4.5.3-.4 6.2-.8 6.7-.7 2.8.9-.2 5.3 2.2 6 1.8.5 3.6-1.9 5 .1 1.3 1.8-1.8 4.4-1.2 6 1 2.5 4-1.4 4.6 2.5.5 3.6-2.4 2.9-4.3 4.2-.9.6-1.1 2.3-1.9 2.8-.6.3-2.8-.6-3.2.4-.2.5.5 2.4 1.1 2.6.9.2 1.7-1.4 3.1-.9 1.7.6 2.9 4.2 3.1 5.6.2 1.2 1.1 1.4 0 2.6-.8.8-2.8.1-4 0 1.4 3.7 4.5.6 6.8 2.9.8.8-1.7 6.9-3.5 7.5-1.1.4-2.6-.6-3.7-.7-2.5-.1-1.7.7-2.7 1.9-2 2.4-2.9 1.5-6.3 1.5-2.4 0-7.5 1.4-9.8.2-3.1-1.7.2-2.3.6-3.4.7-1.8-.2-3.6.9-5.2.4-.6 2.6-1.6 3.2-1.9 1.7-.8 1.7.5 3-1.5-3.1-1.5-4.7.1-7.3 1.3-1.9.8-4.5 1.1-6.7 1.3-2.5.3-5.1 0-7.7.2-2.3.2-5.8 1.7-7.7-.1 1.3-2.2 7.5-1.5 9.8-1.7 2.9-.2 6.9 0 9.5-1.5 1.9-1.1 1.7-1.4 2-3.4.1-.9-.9-1.3.2-2.2 1.2-1 2 1 3 .5 1.5-.7 1.2-2.5 1.4-4zm13.2-6.6c-1.4.4-3.2 1.3-4.5.2-.9-.8-1.3-3.9-.8-4.9.5-1.1 1.4-1.6 2.8-1.5 2.8.2 1.6 1.9 3.3 3.1 0-1.5.4-2.7.6-4 .2-2.6-.1-1.5-2.9-1.5-3.7.1-1.9-2.5-2.1-5.7-5.8.8-1.7 1.6-3 5.3-1 2.8-4.8.2-4.8 3.5 1.4-.4 4.1-1.8 5.2-.5 1.2 1.4-.6 5.2-.1 6.8.8 2.7 6.5 2.2 6.3-.8zm-3.1 18.7c-.3-1.9.2-2 1-3.5.2-.5 2-2.7 2.1-2.9.1-2.6-1-.9-2.5-2.1-.8-.6-1.5-3.4-1.9-4.5-.7 1.6.1 2.4-1.4 3.4-1.1.8-3.5-.5-4.7.3-.4.3-.9 2.1-1.7 2.7-1.1.9-1.8.6-2.5 1.9 1.5-.5 3.7-.8 4.9-1.8 1-.9.9-3.5 2.6-1 .8 1.2 0 3 0 4.3.1 3.5.8 3.4 4.1 3.2zm.4 3c-3-.2-12.7-2.1-11.1 3 .5 1.8.2 1.1 1.9 1.4 1.3.2 2.9-.1 4.1-.2 4.4-.2 4.2-.1 5.1-4.2zm5.3.3c1.9 1 2.3-.9 3.3-2.5-1.4-.9-3-.6-4.6-.9.4 1.2.9 2.3 1.3 3.4zm368.4-206.6c-1 2.7-4.3 3.8-6.4 5.5-2 1.6-3.2 4.4-5.7 5.1-5.7 1.6-12.3 0-18.1.8-2.9.4-5.9 1.4-8.8 2-2.8.6-3.6.5-4-2.6-.3-2.9.1-5.7-.1-8.6-.3-3.5-.1-4.3 2.3-6.6 2-1.9 3.7-4.1 5.3-6.4 1.1-1.6 2.4-5.2 4.1-6 1.5-.7 6.3 0 8-.1 3.2-.2 6.3-.6 9.5-.9 3-.3 6.3-.5 9.3-.5 2.1 0 2.5 0 3.4 2.2 2.3 5.2-1.1 10.9 1.2 16.1zm-33.5 7.5c1.3.9.1 1.9-.6 2.9 4.2-.8 8.3-1 12.6-1.2 2-.1 4.8.2 6.6-.5 2.6-1 1.6-3.7 1.5-6.3 0-.8.3-2.6-.1-3.4-.6-1.3-.2-.6-1.7-1.1-1.7-.5-4.1-.1-5.8-.1-1.9 0-4.6-.5-5.5 1.1-.9 1.6-.3 4.2-1.2 6-2.4-1.6 0-5-1.6-6.4-1.5-1.3-7 .5-8.7.7-1.8.2-1.7-.1-2.4 1.2-.5.9-.1 3.5-.1 4.5 0 2-.5 5 1.2 6.4.2-2.4 3-4.3 5.8-3.8zm28.7-23.2c-1.3-1.3-7.3-.2-9.1-.2-3.5.1-6.9.4-10.4.8-3.7.5-2.5 1.4-3.5 4.4-1.3 4-2.8-.1-3.6-2-2.5 3.2-4.9 6.4-7.4 9.6 2.3 0 6 .7 8.1-.3 2-.9.6-.3 1.4-2 .3-.6-.2-1.5.8-1.8 2.2-.7 1.5 2.6 2.1 3.1.6.4 3.4-.1 4.1-.1 2.6-.1 6 .1 8.1-1.1 3.1-1.6 8.4-7.3 9.4-10.4zm-5.9 21.9c2.4-1.6 6.3-3.9 7.4-6.5 1-2.3 1.3-10.6-.2-12.7-2.8 2.6-5.9 5.9-7.1 9.4-1.2 3.6-.8 6.1-.1 9.8zm-327.8-3.8c2.2-.4 4.4-.9 6.6-1.3 1.6-.3 4-1.6 5.5-1.6 3.3-.1 1.9 3.7 1.5 6.1-.2 1.5-.5 4-2.2 4.7-1 .4-3.9-.2-5.2.1-4 .8-8.3 1.5-12.1 2.9-3.3 1.3-6.5 3.4-7-1.4-.4-3.8-.5-6.7 2.8-8.5 3.2-1.7 4.5-4.3 6.4-7.4 1.6-2.5 6.9-8.4 5.9-11.4-2.1.4-4.1.7-6.2 1.1-.9.2-5.3 1.9-6 1.4-1.1-.7-.1-2.8-.4-3.6-.3-1-1.4-1.6-1.6-2.4-.9-4.6 5.7-2.6 8.1-2.9 3.8-.4 7.4-.9 11.1-1.5 1.9-.3 5.9-1.7 7.3.2.7.9.5 5.6 0 6.6-.7 1.4-1.1 1.2-2.3 2.2-5 4.4-8.6 11.1-12.2 16.7zm5.6-20.4c-1.6 6.4-5 11.3-8.4 16.8-1.7 2.8-2.9 5.8-4.4 8.7-.8 1.7-3.7 3.5-1.2 4.6 1 .4 3.5-1.2 4.6-1.5 1.9-.6 3.9-.6 5.9-.9 2.5-.3 7.4-.4 8.9-2.5.5-.7.8-4.1.2-4.6-.6-.5-4.4.5-5.2.6-1.7.3-8.3 3.1-9.5 1.8-1.7-1.8 8.3-14 10-16.2 2.1-2.7 9.6-9.7 2.2-10.1-3.1-.2-6.2.6-9.2 1.1-1.5.2-6.6 0-7.4 1.6-1.4 2.6 2.3 2.4 3.4 2.3 2.1-.3 8.7-3.3 10.1-1.7zm55-72.9c-5.1-.8-10.4.2-15.6.7-2.6.2-4.9.5-7.5 1-2.8.5-5.7.1-8.4.5-10 1.7-20.3 1.6-30.3 3-3 .4-6.1.3-9.1.9-2.8.5-5.3 1.6-8.3 1.7-1 0-3.8.4-3-1.7.1-.2 2.2-.8 2.6-1 2.5-.9 2.8-.5 5.3-.1 5.2.8 11.5-1.5 16.8-1.7 5.4-.2 10.6-.7 15.9-1.6 10.3-1.8 21.2-2.8 31.7-3.8 2.8-.2 6.2-.7 9.1-.5 3 .2 3.2.6 3.5 3.7.5 5.5.9 11.2 1.1 16.7.5 12.1-2.2 24.2-2.6 36.3-.1 1.7.6 4.7 0 6.3-.3.7-1.4 1.2-1.5 1.9 0 .4 1.5 2.3 1.5 2.5 1.7 4.9-5.4 8.5-6.4 3.4-.7-3.3 2.5-4.4 3.7-6.7 1.1-2.3.2-7.2.4-9.8.5-5.8 1.2-11.7 2-17.5.8-6.1.6-12.3.5-18.5-.1-4.9.1-10.9-1.4-15.7zm-1 65.6c-1.1.1-2.8 2.7-1.1 3 1.5.2 1.9-2.1 1.1-3z"/>
  <path d="M153 90.9c3.6-3.1 8.4-7.7 13.4-5.5 4.5 2 5.3 7.3 4.8 11.8-.8 6.3-5.2 9-9.7 12.9-1.7 1.5-3.7 3-5.1 4.9-1.5 2-1.7 5-3.9 6.3-5.5 3.3-4.5-4.9-5.5-7.7-1.8-4.8-6.8-6.2-8.8-10.6-1.9-4.2-.7-9.6 2.3-12.9 4.4-4.7 8.4-3.5 12.5.8zm-1.9 27.1c1.4-.3 2.1-3.2 2.9-4.2 1.3-1.7 3.1-3 4.7-4.4 3.3-2.9 7.7-5.1 9.3-9.5 1.3-3.4 1.4-10.6-2.7-12.3-4.7-2-8.6 3.2-11 6.2-.9 1.1-2.8 3.7-4 1.7-1-1.8 1.2-2.9-1-4.9-3.4-2.9-7.3.4-8.7 3.7-1.7 4.3-.4 7.8 2.7 10.8 1.8 1.7 3.9 3.2 5.2 5.4 1.3 2.1 1.8 5 2.6 7.5zm-29.5-24.7c-1.5-.5-5.7 1.6-6.7.5-.6-.6.4-3 .3-3.7-.2-.7-1.1-1.6-1.1-2.1-.1-2.4 2.4-1.7 4.4-1.7 3.1-.1 6.2-1 9.3-1.4 1.2-.2 5.4-1.5 6.4-1 1.6.8 1.4 4.2 1.5 5.8.3 5.9-4.1 3.3-7.9 4.8.6 1.6.6 2.5.5 4.2-.1 1.6-1.5 4.8-.9 6.3.9 2.3 1.6.9 3.6 1 .6-.1 1.1-.1 1.7-.1 1.1.4 1.3 1.1.6 2.1.7 2.7 1.6 4.9-1.3 6.5-2.4 1.3-6.2 1.6-8.9 2-2.4.3-7 1.7-9.4 1.1-2-.5-1.5-1.6-1-3.7.3-1.3.5-4.1 1.3-5.2.9-1.2 6.2-1.6 5.8.5-.4 2.1-2.7.2-3.5.8-1 .7-1.2 4.2-1.4 5.3 3.9-.2 7.6-.2 11.4-1.1 1.9-.5 8.3-3.4 4-5.6-3.1-1.6-5.4 2.3-4.9-3.2.3-2.4 2.5-10.5.7-12.3 1.6-.6 3.5-.7 5-1.4 1.7-.7 3.4-.4 2.3-3.3s-4.7-1.8-7.5-1.3c-2.1.4-8.8.1-8.4 3.2.4 3.4 4.4-.7 6.3 1.4 1.2 1.3-.7 5.8-.9 7.5-.3 2.1.6 7.6-1.4 8.6-2.8 1.4-1.5-4.5-1.3-5.8.5-3.3 1.2-5.7 1.4-8.7zm-17.9 90c-3.7 2.6-3.1-1.6-3.1-4.5 0-4.4.6-8.7.5-13-.2-6.8 1.1-13.5 1-20.3-.2-15.5-.5-31.6 1.1-47 .7-6.9-.4-14.6-.3-21.7 0-.9-.6-3.6 0-4.3 1.3-1.4 1.5.8 1.7 1.7.7 3.6.6 8.3.6 11.9-.2 16.5-.1 33.2-.9 49.7-.4 8.9-.9 17.8-1 26.7-.1 4.1-.3 8.1-.3 12.1 0 2.6 1.1 6.6.7 8.7zm511 153.6c-2.9 2.1-6.2 1-9.7 1-3.6.1-7.2.1-10.9.1-8.3-.1-16.7.7-25 .7-3.8 0-7.4.8-11.2.6-3.4-.2-6.9.6-10.3.4-6.7-.4-13.8.9-20.6.2-6.9-.6-14.3 1.4-21.2.1-3.1-.6-2.8-2 0-2.2 3.7-.3 7.9.2 11.6.1 13.9-.1 27.8-.6 41.8-.5 9 .1 18-.9 27-1.2 5-.1 10-.1 15-.4 2.5.1 12.8-1.5 13.5 1.1zM394.1 146.1c2.6.4 4.9 3.5 7.7 1.1 2.4-2.1.1-5.4-2.6-5.4-6.6-.1-9.7 8.9-15.5 10.6-6.6 1.9-11-8.2-6.3-12.6 2.3-2.1 5.6-1.8 8-.3 1.3.8 4.2 4.1.8 3.4-2.2-.4-3.7-3.6-6.5-1.6-2.8 1.9-1.7 6.2.6 7.9 5 3.7 10.2-6.3 14-8.4 2.3-1.3 5.4-2.6 8-1.4 2.7 1.2 3.9 4.4 3 7.2-1.9 5.3-13.5 4.6-11.2-.5zm-223.4-1.6c-3.2 2.2-5.2-4.4-4.2-6.9 1.6-4 6.5-7.5 7.2-11.7-1.8 0-4.9-.6-6.5.5-1.3.9-2.4 3.7-3.1 5.2-.8 1.7-1.2 3.7-3.6 3.7-2.2.1-1.8-1.3-2.7-2.9-1.4-2.4-2.4-3.2-5.1-2.7-.7.1-5 1.3-3.3-1.3.4-.6 5.2-1.5 5.9-1.3 2 .3 2.7 1.8 3.9 3.4 1.4 1.9 1.3 2.5 3.1.4 1.4-1.7 1.6-5.7 3.3-7 1.3-1 2.7 0 4.2.1 1.5.2 5.7-1.3 6.9-.6 2 1.1-.7 2.9-1.7 4.3-1.4 2-2.7 4.1-4.1 6.2-1.4 2.2-2.2 3.1-1.9 5.6.3 1.7 1.7 3.3 1.7 5zm64.7-36.7c-4.5 2.9-1.4-7.9-1.3-9.4.4-4.8.7-9.8 1-14.6.3-4.4.7-9.1.5-13.5-.1-2.5 0-5.1-.2-7.6-.1-1.2-1.4-4.7-.4-5.8 2.3-2.6 3 8 3.1 9 .2 4.9-.1 9.9-.4 14.8-.5 9-2 18.1-2.3 27.1zm119-12.5c-1.3-2.4 3.7-7.6 4.7-10 1.8-4.1 2-8.4.2-12.7-1.5-3.8-4.7-8.1-3.9-12.5.3-2 7.2-8.5 7.8-4.6.2 1.3-5 2.8-5.1 5.5-.2 3.5 2.8 7.3 4 10.4 1.5 4.3 1.7 9.4-.2 13.7-1.3 3-3.7 9.7-7.5 10.2zm-12.3-8.5c-2.9 5.3-10.7 10.2-16.2 5.5-2.6-2.3-3.2-5.4-7.3-4.3-2 .5-4.5 5.6-5.8 3.5-1.8-3 3.6-5.4 5.4-5.9 4.1-1 5.5.3 8 3.3 2.4 2.9 5.2 3.6 8.7 1.9 2.9-1.2 4-5.7 7.2-4zm49.8-26.5c-1.8.7-2.9 1.9-4.1.2-.8-1.1-.3-3.5-.5-4.7-.2-1.1-1.1-2.3-.6-3.3.4-.9 4.4-1.4 5.2-1.5.3-.1 3.2-1.1 3.5 0 .5 1.5-2 2.3-2.8 2.6-1.6.7-2.7.1-3.2 2-.7 2.6.8 1.6 2.1 2.2 2.3 1.1 4.6 1.6 4.9 4.5.3 2.9-2.1 5-4.8 5.4-1.3.2-3.8.2-4.5-1.3-.9-1.9.5-1.6 1.5-1.6 1.6-.1 3.2 1.5 4.6-.4 1.4-1.8-.2-2.9-1.3-4.1zm-91.7 21.4c-.3-1.8-.6-5.1 2-5.5 2-.4 4.1 2.3 4.1 4.1 0 2.5-2.1 3.6-4.1 4.3-2.5.8-3.9 1.7-6.2 3.2-1.3.8-11.6 7.6-11 3.9.2-1.2 6.5-4 7.6-4.6 2.4-1.4 6.4-2.8 7.6-5.4zm-28.7 4.2c.5-1 1-2.3.2-3.3-.3-.4-1.1-.7-1.6-.8-1.8-.2-.5.3-1.5.9-1.3.7-.7 1.7-2.4.4-.8-.6-3.4-4.8-3.4-5.5-.2-2.3 1.1-1.4 2.7-2.8.8-.7 1.3-2.8 2.4-3 1.6-.3 1.6 1.8 1.3 2.8-.4 1.2-2.2 2.8-2.8 4.2 2.6 0 5.6-.2 7.4 2.2 1.5 2 1.2 5.1-.8 6.7-1.5 1.3-3.9 1.1-5.1-.9-2.2-3.9 2.4-.7 3.6-.9zm47.7-9.6c3.9-.7 5.9 3.1 9.1 4.3 2.4.9 6.2.2 8.2-1.4 1.1-.9 2.4-6 4.2-3.6 1.5 2-3.4 5.5-4.6 6.2-2.6 1.5-5.7 1.9-8.6 1-3-1-4.9-3.7-8.3-3.9-1.5-.1-3.1.1-4.3 1-1 .7-1 2.7-2.6 1.2-3.2-3 5.6-4.7 6.9-4.8zm75.1 38.1c1.5.7 5.8-2.4 6.5-.8 1.2 2.6-6.7 3.8-7.8 3.2-6.3-3.6 7.5-11.9 2.3-14.4-1-.5-6.4 1.8-5.2-1.2.8-2 4.7-1.7 6.4-1.1 7 2.6-1.3 10.2-2.2 14.3zM51 356.1c-7.1 2.8-16 2.1-23.5 3.3-3.6.6-7.1 1.2-10.7 1.7-1.5.2-9.1 3-8.2 0 .4-1.4 8.8-1.8 10.1-2 4-.6 7.9-1.3 11.9-1.7 2.4-.3 20-3.3 20.4-1.3zm262.4-197.7c-2.7 2.3-7.5-11.1-8.5-13.2-.6-1.3-4.9-5.9-4.7-6.8.1-.5 5.6-3.7 6.3-3.9 1.4-.2 1.9 0 1.5 1.5-.6 1.9-1.4.7-2.8 1.6-2.4 1.6.2 3.7 1.3 5.4 1.4 2.3 2.2 4.9 3.3 7.3 1.3 2.4 4 5.2 3.6 8.1zm24.1-29.8c1.3.5 3-.1 4.2.8-1.2 2.5-10.2 2.8-9.9.5.2-1.5 2.7-1.7 3.3-2.9 1.1-2-.2-5.5-1.1-7.3-.8.5-1.6 1-2.3 1.5-1.1-1.5 1.6-8.7 4.2-6.4.6.6 1 5 1.2 6 .5 2.8.4 5 .4 7.8zm-101.8 40.3c-3.5.6-3.8.3-3.2-3.2.4-2.6.7-5.2.7-7.9 0-2.6-.1-5.2-.3-7.8-.1-1-1.2-4.9-.3-5.8 2.6-2.7 2.9 9.1 3 10.4.3 4.7-1.3 10.1.1 14.3zM414.1 59.6c.7-1.3 2.1-.1 3.1-.5-1.4-2.1.4-5.2-1-6.9-.5-.6-1.4.5-1.9-1-.3-.9.9-2.9 1.2-3.6 1.8-4 2.7-2 3.1 1.4.4 3.3.9 6.5.6 9.8 1.8-.1 5.9.8 2.3 2.6-1.6.8-7.2.4-7.4-1.8zm-47.9 52.3c-.8.8-3.3 4.2-3.8 1.6-.2-.9 2.5-4.9 3.1-5.4 4.3-3.9 2.3 9.2 3.1 11.2.7 1.8.5 1.3 2.5 1.5.7.1 2.7-.9 3.2.1.9 2.1-2.9 1.8-3.6 1.8-3 .3-3.7.8-4.2-2.8-.3-2.4.7-5.5-.3-8zm-262.5 71.4c3.1-1.7 7.9-1.1 11.4-1.3 1.4-.1 12.3-.9 8 2-2.8 1.9-9.4.3-12.7.6-1.9.2-7 1.9-6.7-1.3zM407.2 61.6c-.4.4-1.1 1.2-1.7 1.3-2.3.5-.8-1-1.8-2.2-1.3-1.5-2.7.7-4.5-.5-1.5-1-.9-2.1.2-2.7 2-1 2.5 1.1 3.6-1.9.4-1-.1-3.7 2.1-2.3.7.4.2 1.5.7 2 .8.8.6.5 1.9.8 1.2.3 4.6.8 1.6 2.6-2.5 1.3-3.5-1.2-2.1 2.9zm-53.5 59.5c-1.5-2.9-1.2-2.4-4.3-2.1-.6.1-2.1.7-2.7 0-1.1-1.4.9-1.6 1.7-2 1.6-.7 2.7.1 3.3-1.8.3-1-.9-7.3 2-3.6.7.8-.2 2.9.7 3.6 1.2.8 2.5-1.3 3.8 0-.5 1.6-1.9 1.5-2.8 2.6-.9 1.4.3 1.9-1.7 3.3zm-189.9 26.8c-.7.9-3.9 6-5.8 4.7-1.5-1 3.3-7 4.5-7.7 1.2-.7 1-1.2 2.6-.1.6.4 2.5 3.2 2.6 3.8 0 .6-.2 2.7-1.8 2.3-1.1-.2-1.1-2.4-2.1-3zm150.7 97.8c-3-2.7 5.9-3.1 7.1-2 2.6 2.2-2.7 1.6-3.9 2.1-1.8.7-1.2 1.6-3.7 1.8-1.7.1-4.6.6-6.2-.1-5.2-2.2 5.1-1.4 6.7-1.8zM278 74c2.4 3.1-2.7 3.7-4.3 2.8-2-1.1-3.6-4.1-3.1-6.4.2-1 1.1-2.7 2.4-2.6 2.3.2.4 1.7.3 2.6-.4 3.4 1.5 4.4 4.7 3.6zm55.7 250.6c-.3 1.2-.9 7.3-2.6 7.5-2.5.3.1-4.1.2-4.8.2-1.3-.4-2.7.1-4 .9.4 1.4.3 1.5-.5-.1-.7.1-1.2.6-1.7 1.9-1 2.6 2.6.2 3.5zm41.2 22.2c-3-1.4-5.6.4-8.6.4-3.3-.1-1.5-1.8.8-2.1 2.3-.2 12.9-3.2 7.8 1.7zm11.4-233.7c-1.6 1.8-1.9 1.5-4 1.8-1.3.2-5.1 2-6 .9-1.2-1.5 8.2-4.7 10-2.7zm27.3 208.8c1.3.1 13.3-1.1 8.7 1.7-1.4.8-4.2.4-5.7.3-2.1 0-3 .3-3-2zm-71.1-2.6c2.9-.5 1.3 7.9 0 8.6-3.2 1.5-.2-7.7 0-8.6zm42.8-209.5c-1.2 1.6-2.1 1.9-3.9 2.3-.9.2-4.2.9-4.8.2-1.1-1.6 7.3-4 8.7-2.5zm-45 62.3c-.7-.5-7.5-2.9-4.6-4.7.5-.3 4.6 1.2 4.9 1.5 1.6 1.3 1.4 1.8-.3 3.2zm-21.4 66.5c.8.1 3.3.1 2.7 1.6-.4 1-4.2.7-5 .7-.9.1-3.1.7-2.8-.9.1-1.2 4.1-1.2 5.1-1.4zm-10-34.1c-5.8-1.9 1-2.1 3-2.3 1-.1 3.7-.8 2.7 1.3-.4.9-4.9.9-5.7 1zm44.2 111.4c3.4-.1 1.2 6.6-.3 6.9-2.5.4-.1-5.8.3-6.9zm-73.1 8.2c2.4-.1 4.8-.5 7.2.3.1 2.6-6.9 2.9-7.2-.3zm33.7-69.6c.1 1.1-7.7 1.5-8.3.6-2.1-2.8 7.6-.8 8.3-.6zm45.2 69.2c.3-1.3 2.6-8.4 3.5-3.7.2 1.2-2.1 6.8-3.5 3.7zm-52.1-89.8c2.8 0 6.7-.2 9.1 1.4-1 1.3-9.4 1.2-9.1-1.4zm16.4-7.5c-.6 1.3-6.6 2.4-7 .7-.3-2.1 6.4-2.4 7-.7zm-17.8 56c-1 .1-8.6 1.4-7.1-.9 1.2-1.7 6-.8 7.1.9zm9.6-29.2c1.2.1 8-.1 5.9 2.5-.2.2-3.7-.2-3.6-.2-2-.4-2.7-.1-2.3-2.3zM282.6 314c.7-.9 7-2.6 6.4-.1-.2 1.5-6.1 2.1-6.4.1zm-.5 27.6c-.3-2.5 6.1-4.8 6.4-2.2-2.3.5-4.1 2.2-6.4 2.2zm25.7-65.3c-.5.3-7.3 2.1-7 .3.5-2.3 5.7-1.1 7-.3zm3.9-43.7c.7-1.3 6.6-2.5 6.6-.2.1 1.9-5.7.8-6.6.2zm1.5 8.9c-.7.9-6.3 2.5-6.3.8-.1-2.2 5.1-1.6 6.3-.8zm4.9 24.2c-1 1-5.3 2.4-5.7.5-.5-2.2 4.9-1.4 5.7-.5zm-10.2-49.3c2.1 0 4.3-.9 6.2.5-1.8 1.5-4.1 1.1-6.3 1.2 0-.6 0-1.2.1-1.7zM373 337.5c-1.3-1.6-.2-5.4 2.1-4.4 1.6.7-1 4-2.1 4.4zm-88.4-4.7c-1.2 1-4.9 2.4-5.7.4-1-2.5 4.9-.9 5.7-.4zm33.6-96.5c-.2-.5-.3-.9-.5-1.4 1-.6 5.3-1.6 5.6.4.3 1.9-4.3 1.1-5.1 1zm49.6 91.2c-1.9-.8.5-6.5 2.1-4.9 1.2 1.2-1 4.3-2.1 4.9zm15.7 2.2c1.4.7 1.7 1.6.9 3.1-.3.6-.9 2.1-2 1.7-1.8-.8.5-3.8 1.1-4.8zm-67.4-107.2c2.1 3.2-4.8 3.2-5.5 2.1-1.4-2.3 4.6-.7 5.5-2.1zm-11.9 42.9c1.1-.7 7.1-1.2 6.5.5-.7 1.8-5.5.3-6.5-.5zm106.1 60.4c1.9.6 4.2 1.5 6 2.5-1.6 1.8-6.6.3-6-2.5zm-92.4-117.9c1.3 0 5.6-.8 6.1 1.2-.5.7-3.5.8-4.2.8-1.7-.1-2.4.2-1.9-2zm-23 82.6c-.8-2.9 5.1-2.6 5.7-1.1.6 1.6-5.1 1.1-5.7 1.1zm72.3 39.1c1.6.6 1.6 3.6 0 4.5-3.4 2.1-.4-3.7 0-4.5zm-70.4-32.1c-.8.9-5.6 2.2-5.8.4-.3-2.3 5.1-1 5.8-.4zm54.1 31.2c-.5-.9-2-5.1.4-4.9 2.9.4.4 4-.4 4.9zM324 217.9c-1.7.6-5 1.4-6.7.8 1.3-1.3 5.9-3.6 6.7-.8zm-15.7 57.2c.8 0 6.4-1 5.2 1.4-.4.8-2.1.6-2.8.5-1.9-.3-1.7.1-2.4-1.9zm2.5-15.2c.4-2 4.7-1.9 5.8-.9-.9 2.2-3.9 1.1-5.8.9zm-16 82.7c-.3 1.1-2.4 4.5-3.5 2.8-1.1-1.8 2.1-3.8 3.5-2.8zm16-3.3c1.5-.8 3.3 1.8 2.7 3.1-1.2 3.1-2.8-2-2.7-3.1zm-4.2-112.4c.9-.6 6.2-1.2 5.1.8-.7 1.2-4.4.1-5.1-.8zm1.2 45c-.1.3-4.6 1.3-5.4.5-1.4-1.4 4.3-2.1 5.4-.5zm12.8 60.6c4.4-1.9 1.3 8.5 0 0zm40.7-5.4c-2.1 7.4-4.2-2.2 0 0zm-57.2 18.4c-.8-1-2-4.4.2-4.2 1.6.3 1.7 3.9-.2 4.2zm-9.8-40.9c-1.3 1.3-3.1 1.5-4.9 1.3.8-1.6 3.5-2.6 4.9-1.3zm5.1-6.8c-.8-4.3 7.6.3 0 0zm18.9-93.9c0-1.4 3.6-2.3 4-1.1.5 1.6-3.1 1.7-4 1.1zm-12.8 57c0-2.2 3.8-1.5 4.7-.6-1.4 1.1-3.1.9-4.7.6zm5-51.2c.2-3.4 7 .5 0 0zm9.2 13c1-.1 6 0 2.8 1.4-1.4.7-2.3-.1-2.8-1.4zm-10.8 61.6c-2.6 0-1.2-3 .9-2.2 1.9.7-.1 2-.9 2.2zm-5.3 4.9c.7-1.9 1.9-2.2 3.5-.8-1.1 1.3-1.9 1.2-3.5.8zm-14.8 35.6c.9-.5 3.9-.2 3 1.3-.9 1.2-3.3.3-3-1.3zm106.1 6.2c1.7 5.3-4.8.1 0 0zm-104.4 2.3c-.6.9-3.4 1.7-3.1-.2.2-1.8 2.6-.4 3.1.2zm53.5-17.2c1.1.3 3.1.9 1.4 2.3-1.7 1.6-1.4-1.4-1.4-2.3zm-32.3-43.5c-.4-1.8 1.9-1.8 2.8-.9-.9 1.3-1.4 1.3-2.8.9zm-20.3 40.1c5.6-.7-.8 3.7 0 0zm6-7.4c-.1 1.4-1.8 1.1-2-.1-.2-1.6 2.1-1.5 2 .1z"/>
  <path d="M317.7 247.7c-.6-2 3.5-1.6 0 0zM146.8 324c-2.8 3.5-3.2-.6-3.1-3 .1-4 .2-8.1.3-12.2.1-7.7.3-15.8-.2-23.5-.4-6.4-.2-12.9-.6-19.3-.1-1.9-.9-17.4.5-17.5 2.4-.1 1.5 14.5 1.6 16.2.2 6.5 1.2 12.9 1 19.5-.2 6.1 0 11.8 0 17.9-.1 7.2-.9 14.7.5 21.9zm24.7-56.3c-2.6 1.8-4.5 4.2-6.6 6.5-.9 1-5 5.2-4.4 1.4.2-1.6 5.2-4.2 6.4-5.5 1.8-1.7 2.7-4.8 4.6-2.4zm57.2-18.5c-.1 2.4-3.5 2.9-5.2 4.4-2.1 1.7-3.5 4-5.7 5.5-1.3-2.4 3.1-5.1 5.1-6.7 1.2-1.1 4-4 5.8-3.2zm-70.2 64.7c-3.1-2.2 8.2-9.2 8.8-7.9.6 1.1-7.5 7.1-8.8 7.9zm4-55.2c-1.2-1.9 3.3-9.4 4.9-8.9 3.1 1.1-3.5 8.6-4.9 8.9zm69.2 8c.1 2.1-3.1 3.6-4.4 4.9-1.8 1.7-3.5 3.5-5.4 5.2-1.7-1.2 1.2-2.8 1.7-3.2 1-.9 1.3-1.2 2.2-2.5 1.2-1.6 4-5.6 5.9-4.4zm-78.8 35.7c-1.9-1.2.4-3.1 1.4-4 .6-.5 3.3-3.3 3.9-3.3 3.1 0-4.1 6.5-5.3 7.3zm38.7-37c-.3 2.4-2.7 3.7-4.4 5.4-.7.7-1.4 2.4-2.4 1.4-.8-.8.2-.9.5-1.5.8-1.8 4.3-6.1 6.3-5.3zm7.8 48.3c.9-.9 1.1-1.9 1.8-2.8.4-.5 4.9-4.8 5.4-4.7 2.4.6-1 3.1-1.8 3.9-1.4 1.5-3.3 4.5-5.4 3.6zm15.7-12.4c-.1-1.3 6.8-10.2 8-10.1 2.7.3-1.2 3.6-1.9 4.2-2 2-4.1 4-6.1 5.9zm-16.3-25.8c1.3-.7 7.1-7.1 8.1-5.9.6.6-6.3 8.8-8.1 5.9zm-32.9 14c1.7-2 4-4 6.1-5.7 1.4-1.2 3.7-4.5 5.4-3.4-.7 1.9-4.5 4-6.1 5.4-1.7 1.4-3.1 3.7-5.4 3.7zm13.4 5.3c1.1-.7 9.5-6.9 9.6-5.8.1 1-4 3.4-4.8 4.1-1.5 1.3-3 3.8-4.8 1.7zm9.5 10.7c1.5-1.9 3.6-2.4 5.3-4 .5-.5.5-1.3 1.2-2 .9-.8 2.4-1.3 3.5-1.6-.1.9-.3 1-.8 1.6-.6.3-1.3.5-2 .7-.4.6-.8 1.2-1.3 1.7-.9 1-4.5 4.9-5.9 3.6zm18.4-14.3c-1.5-1.8.7-2.8 2.2-4.4.6-.7 2.2-3 3-2.9 2.1.3-4.5 6.6-5.2 7.3zm-28.1 21.9c.8.7-4.7 6.1-5.8 5.9-2.8-.4 4.8-5.5 5.8-5.9zm38.6-3.2c-2.2-1.1 2.3-5.7 3.7-5.2 2.8 1-2.8 4.5-3.7 5.2zm-65.5-23.2c-1-1.7.6-4.7 2.8-4.8 3.4-.1-1.7 4.2-2.8 4.8zm6.5-24.2c-.3.7-4.7 6.7-4.7 3.7 0 .1 2-3 2.1-3 .9-.8 1.2-.9 2.6-.7zm21.8-7.1c.7 1.7-2.8 5.1-4.3 5.1 1.5-2 1.7-4.1 4.3-5.1zm-9.3-76.2c-1.4-3.3 1.8-2.2 3.4-1 2.3 1.8 4.1 4.3 5.4 6.9 2.2 4.2 2.7 13.9-.6 17.8-2.1 2.5-3.2 1-2.3-1.4 1-2.8 1.6-4.6 1.6-7.6.1-5.5-2.3-12.2-7.5-14.7zm246.1 81.3c-4.4-10.5-22.5-3.1-16.5 7 4.8 8 20.3 2.2 16.5-7zm-6.2 8.8c-2.7 1.3-4-.5-3.6-3.1.3-2.2 1.1-7.4 3.8-7.7 2.3-.3 4.1 2.6 4.1 4.5 0 2.6-2 5.2-4.3 6.3z"/>
  <path d="M414.6 275.4c5.1-8.4-6.1-1.2-3.8 2.3.6.9 5.1 1.6 5.7 1.2 3-1.8-1.2-2.3-1.9-3.5zm-145-133.5c1.6-1.4-.9-1.7-1.7-2.5-1.1-1.1-1.4-2.6-2.2-3.9-.9-1.5-1.2-2.4-2.5-.9-1.6 1.8-.3 1.2.3 3.1.7 2.2.2 1.4-1.5 2-1.2.4-3.4.8-1.6 2.5 1.7 1.7 7.1-.1 9.2-.3zm-8.1-7.8c2.6-3.4 4.1-8.9.8-12.5-2.5-2.7-7.9-2.2-10.8-.1-3.6 2.6-4.8 8.9-1.9 12.2 3.5 3.9 8 2.5 11.9.4zm-5.9-4.3c.1 1.2 0 2.4 0 3.7-5.5.6-5.9-6.1-3.2-9.3 1.2-1.4 2.7-2.2 4.5-2 1 .1 3.9 1.3 4.2 2.1-2.7 1.1-5.6 2-5.5 5.5zm27-1.3c2.1 7.1-16.6 12.3-15.7-.3.3-3.9 3.5-8.4 7.6-8.3 3.6.2 9.2 4.7 8.1 8.6zm-5.4-4.1c-2.8-1.7-4.6-2.2-6.5 1-.9 1.5-2.3 5.6.2 6.5 1.3-4.1 2.7-5.2 6.3-7.5zm170.6 30.5c-1.2 1.2-9.8 2.6-9.6-.1.1-1.6 2.3-1.1 3.4-1.2 2.7-.2 4-.4 6.2 1.3zm-19.7 4.8c-2.2-5.9 6.7-.6 0 0zm-263.6 61c-.6-1.9-.1-3.9 1.9-4.5.3-.1 3.6-.7 3.5-.3-.2.6.8.9 1 .3.6-2.2-3.4-1.3-4.3-1-2.8.7-3.9 3.1-3 5.8.2.6 1.1.3.9-.3z"/>
  <path d="M163.9 218.2c-.2 1 0 2 .5 2.8.3.5 1.2 0 .9-.5-.4-.6-.6-1.3-.4-2 0-.7-.9-1-1-.3z"/>
  <path d="M163.5 220.7c0 .6.2 1.2.7 1.6.5.4 1.2-.3.7-.7-.3-.3-.4-.5-.4-.9.1-.6-.9-.6-1 0zm6.4 20.5c.4.9 1 1.7 1.5 2.4s1 1.7 1.6 2.2c.5.4 1.2-.3.7-.7-.6-.5-1-1.4-1.5-2-.5-.7-1.2-1.5-1.4-2.2-.2-.6-1.2-.3-.9.3zM285.5 87.3c-.7 0-1.3-.5-1.5-1.2-2.7-14.6 6.6-29.6 20.7-33.3 13.7-3.6 28.7 4 34.2 17.3.3.8 0 1.6-.8 2-.8.3-1.6 0-2-.8-4.9-12-18.4-18.8-30.6-15.5-12.6 3.2-20.9 16.6-18.5 29.8.1.8-.4 1.6-1.2 1.7h-.3z"/>
  <path d="M280.2 69.5c.4.3-.5-.5-.6-.6-.5-.5-1-.9-1.5-1.4-.5-.6-2.9-2.6-2.6-3.5.5-1.8 6.1 2.6 6.9 3.2 1.4 1 3.1-1.2 1.8-2.4-.6-.6-4.6-4.6-3-5.4.9-.4 3.4 2.5 4 3 1.4 1.4 3.3-.6 2.1-2.1-1.1-1.4-1.2-3-2-4.5-.4-.8.4-.5-.5-.4.4 0 1.1.4 1.4.6 1.1.7 1.8 1.9 2.8 2.7 1.5 1.1 3.6 1.4 4.9-.2 1.3-1.6.9-3.9-.1-5.5-1-1.7-3.6-.1-2.6 1.5.4.7.9 1.5 0 1.6-.9.2-1.3-.8-1.9-1.4-.8-.8-1.6-1.4-2.6-1.9-1.4-.6-3.1-.8-4 .7-1.6 2.5.9 6.9 2.4 8.9l2.1-2.1c-1.9-1.8-5.6-5.7-8.3-3.2-3.2 2.9.8 7.7 3.1 9.7l1.8-2.4c-2.5-1.8-8.7-7-11-2.1-1.7 3.5 3.3 7.8 5.8 9.6 1.6 1.3 3.1-1.3 1.6-2.4zm170.7 34.7c-.4 2.9.4 6.9 4 7 2 0 3.8-1.3 5.4-2.3 1-.7 1.9-1.4 2.9-2 .4-.2.8-.5 1.2-.7.5-.3 2.8-.7 3.2.1.2.6 1.2.3 1-.3-.9-2.1-3.4-1.4-4.9-.6-1.8.9-3.3 2.3-5 3.3-.5.3-.9.6-1.4.8-1.2.6-3.2.7-4.3-.2-1.3-1-1.3-3.4-1-4.9-.1-.5-1-.8-1.1-.2z"/>
  <path d="M453.9 110.5c2.8-.2 4.7-1.5 7-3.2 1.3-.9 2.6-1.8 4.1-2.3 1.1-.3 2.7-.5 3.1 1 .3 1-.7 2.7-1.5 3.2-.5.3 0 1.2.5.9 2-1.2 3.2-5.7.1-6.3-1.8-.4-4.1.9-5.5 1.9-2.6 1.7-4.5 3.7-7.8 4-.6-.2-.6.8 0 .8z"/>
  <path d="M455.4 111.2c2.1 0 3.9-.6 5.8-1.5 1-.4 2-.9 3-1.3 1.2-.5 2.5-1.2 2.7.5.2 2.3-2.1 5.2-3.6 6.7-1.9 1.9-4.1 3.3-6.6 4.2-.6.2-.3 1.2.3 1 4.7-1.7 11.1-6.5 10.9-12.1 0-1.5-.8-2.1-2.2-1.8-3.6.7-6.4 3.4-10.2 3.4-.7-.1-.7.9-.1.9z"/>
  <path d="M464.1 107.8c.7-.3 1.4-.7 2.1-1 .2-.1.5-.3.8-.2.1 0 .3.1.4.2.1 0 .2.1.2.1.1.1.2.1.1-.2-.6.2-.3 1.2.3 1 1.6-.6.3-1.9-.8-2.1-.6-.1-1.2.2-1.8.5l-1.8.9c-.6.2 0 1.1.5.8z"/>
  <path d="M461.2 110c1.4-.8 4.8-3.1 4.6 0-.1 1.4-1.8 3.4-2.6 4.4-2.9 3.4-7.9 6.8-12.5 6.1-.6-.1-.9.9-.3 1 5.9.8 12-3.8 15-8.5.8-1.2 2.5-4.1.9-5.4-1.5-1.2-4.3.7-5.7 1.5-.4.3.1 1.2.6.9zm-53 172c2.9 2.3 7.3 4.6 10.3 1.3.4-.5-.3-1.2-.7-.7-2.6 2.9-6.4.7-8.8-1.3-.6-.4-1.3.3-.8.7zm-152.8-59.5h-7.9c-.4 0-2.9.3-3.2 0-.1-.1-.4-2.7-.1-3 .8-.8 6.4 0 7.5 0 3.5 0 3.7-.6 3.7 3zm6.1-2.8c0 1.8-2.7 1.8-2.7 0s2.7-1.8 2.7 0zm4.3 0c0 1.8-2.7 1.8-2.7 0s2.7-1.8 2.7 0z"/>
</svg>
